<svg width="1186" height="200" viewBox="0 0 1186 200" fill="none" xmlns="http://www.w3.org/2000/svg">
<g clip-path="url(#clip0_55_2)">
<path d="M403.252 136.797C407.059 129.923 416.941 129.923 420.748 136.797L444.482 179.655C448.174 186.32 443.353 194.5 435.734 194.5H388.266C380.647 194.5 375.826 186.32 379.518 179.655L403.252 136.797Z" fill="#858585"/>
<path d="M397 48L455.5 14L395 60.5L467.5 18.5L396 68L477.5 25L398.5 79L485.5 35L403.5 87.5L491 48L410.5 96.5L493 60.5L423 105L491 73L446 109.5L482.5 90.5" stroke="#858585" stroke-width="2"/>
<circle cx="420" cy="71" r="49" stroke="#858585" stroke-width="2"/>
<path d="M1040 93.5L1050.5 84L1040 99.5L1059 84L1040 107L1068 84L1040 116L1079 84L1040 126L1091 84L1040 135L1102.5 84L1040 146L1118.5 84L1040 159L1118.5 99.5L1055.5 159L1118.5 116L1074.5 159L1118.5 135L1094 159L1118.5 146L1111.5 159" stroke="#858585" stroke-width="2"/>
<rect x="1062" y="72" width="79" height="75" rx="9" stroke="#858585" stroke-width="2"/>
<path d="M42 118.908L53.3182 129L48.2879 110.077L62.75 129L53.3182 100.615L73.4394 129L58.9773 91.7846L83.5 129L64.6364 82.9538L92.9318 129L69.6667 73.4923L102.364 129L75.3258 66.5538L113.053 129L78.4697 57.7231L125 129L86.0152 47" stroke="#858585" stroke-width="2"/>
<path d="M124.324 27.3862L171.778 107.935C175.116 113.602 171.031 120.75 164.454 120.75H69.5458C62.9692 120.75 58.884 113.602 62.2222 107.935L109.676 27.3862C112.964 21.8056 121.036 21.8056 124.324 27.3862Z" stroke="#858585" stroke-width="3"/>
<rect x="826" y="160" width="40" height="40" rx="10" fill="#858585"/>
<circle cx="752.5" cy="41.5" r="29.5" fill="#858585"/>
<g filter="url(#filter0_d_55_2)">
<path d="M156.216 58.88H165.432V128H156.216V58.88Z" fill="#00D0D0"/>
<path d="M185.984 70.784C185.152 70.4 184.256 69.728 183.296 68.768C182.4 67.744 181.952 66.368 181.952 64.64C181.952 62.528 182.528 60.928 183.68 59.84C184.896 58.688 186.368 58.112 188.096 58.112C189.824 58.112 191.264 58.624 192.416 59.648C193.632 60.672 194.24 62.336 194.24 64.64C194.24 66.176 194.016 67.552 193.568 68.768C193.12 69.984 192.704 71.04 192.32 71.936L186.56 84.608H179.264V83.84L185.984 70.784Z" fill="#00D0D0"/>
<path d="M206.935 128V94.976C206.935 93.696 206.903 92.032 206.839 89.984C206.839 87.936 206.775 85.92 206.647 83.936C206.583 81.952 206.423 80.384 206.167 79.232L206.359 78.464C208.023 77.824 210.103 77.216 212.599 76.64C215.095 76.064 217.655 75.584 220.279 75.2C222.903 74.816 225.239 74.624 227.287 74.624C230.103 74.624 232.791 74.976 235.351 75.68C237.911 76.32 240.183 77.504 242.167 79.232C244.215 80.896 245.815 83.2 246.967 86.144C248.183 89.024 248.791 92.736 248.791 97.28V128H239.959V98.048C239.959 93.824 239.351 90.592 238.135 88.352C236.983 86.048 235.351 84.48 233.239 83.648C231.191 82.752 228.823 82.304 226.135 82.304C224.087 82.304 221.879 82.528 219.511 82.976C217.207 83.424 215.191 83.968 213.463 84.608L214.999 81.92C215.255 82.88 215.447 84.096 215.575 85.568C215.703 86.976 215.767 88.448 215.767 89.984V128H206.935ZM271.831 128V98.048C271.831 93.824 271.287 90.592 270.199 88.352C269.111 86.048 267.479 84.48 265.303 83.648C263.127 82.752 260.439 82.304 257.239 82.304C255.383 82.304 253.463 82.528 251.479 82.976C249.559 83.424 247.511 84.096 245.335 84.992L239.959 78.848C243.159 77.568 246.327 76.544 249.463 75.776C252.663 75.008 255.639 74.624 258.391 74.624C261.591 74.624 264.535 74.976 267.223 75.68C269.911 76.32 272.247 77.504 274.231 79.232C276.279 80.896 277.847 83.2 278.935 86.144C280.087 89.024 280.663 92.736 280.663 97.28V128H271.831Z" fill="#00D0D0"/>
<path d="M341.519 129.152C334.031 129.152 328.398 127.808 324.622 125.12C320.91 122.368 319.055 118.208 319.055 112.64C319.055 108.928 319.951 105.856 321.743 103.424C323.599 100.992 326.191 99.168 329.519 97.952C332.911 96.736 336.911 96.128 341.519 96.128C345.103 96.128 348.079 96.448 350.447 97.088C352.879 97.664 354.959 98.24 356.687 98.816V105.728C354.959 105.152 352.815 104.64 350.255 104.192C347.695 103.68 345.295 103.424 343.055 103.424C337.871 103.424 333.999 104.096 331.439 105.44C328.943 106.784 327.695 109.184 327.695 112.64C327.695 115.904 328.91 118.272 331.342 119.744C333.774 121.152 337.295 121.856 341.903 121.856C344.463 121.856 346.927 121.664 349.295 121.28C351.663 120.832 353.871 120.256 355.919 119.552L354.191 122.144C354.063 121.632 353.935 121.056 353.807 120.416C353.743 119.776 353.679 119.104 353.615 118.4C353.551 117.696 353.486 116.96 353.423 116.192C353.423 115.424 353.423 114.624 353.423 113.792V96.512C353.423 92.416 352.847 89.376 351.695 87.392C350.607 85.344 348.943 84 346.702 83.36C344.527 82.656 341.775 82.304 338.447 82.304C335.951 82.304 333.391 82.624 330.767 83.264C328.207 83.904 326.158 84.608 324.622 85.376H323.855V77.504C326.159 76.544 328.719 75.84 331.535 75.392C334.415 74.88 337.103 74.624 339.599 74.624C342.799 74.624 345.743 74.912 348.431 75.488C351.183 76.064 353.583 77.12 355.631 78.656C357.743 80.128 359.375 82.272 360.527 85.088C361.679 87.904 362.255 91.584 362.255 96.128V108.8C362.255 110.08 362.255 111.744 362.255 113.792C362.319 115.84 362.383 117.856 362.447 119.84C362.575 121.824 362.767 123.392 363.023 124.544L362.831 125.312C360.719 126.08 358.383 126.752 355.823 127.328C353.263 127.904 350.703 128.352 348.143 128.672C345.647 128.992 343.439 129.152 341.519 129.152Z" fill="#00D0D0"/>
<path d="M379.904 128V94.976C379.904 93.696 379.872 92.032 379.808 89.984C379.808 87.936 379.744 85.92 379.616 83.936C379.552 81.952 379.391 80.384 379.135 79.232L379.327 78.464C380.991 77.824 383.103 77.216 385.663 76.64C388.223 76.064 390.815 75.584 393.439 75.2C396.063 74.816 398.336 74.624 400.256 74.624C403.456 74.624 406.432 74.976 409.184 75.68C411.936 76.32 414.367 77.504 416.479 79.232C418.655 80.896 420.319 83.2 421.471 86.144C422.687 89.024 423.296 92.736 423.296 97.28V128H414.464V98.048C414.464 93.824 413.855 90.592 412.639 88.352C411.423 86.048 409.664 84.48 407.36 83.648C405.056 82.752 402.304 82.304 399.104 82.304C397.056 82.304 394.848 82.528 392.48 82.976C390.176 83.424 388.16 83.968 386.432 84.608L387.967 81.92C388.223 82.88 388.416 84.096 388.544 85.568C388.672 86.976 388.736 88.448 388.736 89.984V128H379.904Z" fill="#00D0D0"/>
<path d="M463.591 129.152C460.263 129.152 457.127 128.8 454.183 128.096C451.303 127.456 448.775 126.304 446.599 124.64C444.487 122.912 442.823 120.576 441.607 117.632C440.391 114.688 439.783 110.976 439.783 106.496V92.288C439.783 91.008 439.751 89.344 439.687 87.296C439.687 85.248 439.623 83.232 439.495 81.248C439.431 79.264 439.271 77.696 439.015 76.544L439.207 75.776H448.615V105.728C448.615 109.952 449.223 113.216 450.439 115.52C451.719 117.76 453.543 119.328 455.911 120.224C458.343 121.056 461.255 121.472 464.647 121.472C466.695 121.472 468.775 121.312 470.887 120.992C473.063 120.608 474.951 120.192 476.551 119.744L474.919 122.048C474.663 121.152 474.503 120.032 474.439 118.688C474.375 117.344 474.343 115.968 474.343 114.56V92.288C474.343 91.008 474.311 89.344 474.247 87.296C474.247 85.248 474.183 83.232 474.055 81.248C473.991 79.264 473.831 77.696 473.575 76.544L473.767 75.776H483.175V109.184C483.175 110.464 483.175 112.128 483.175 114.176C483.239 116.224 483.303 118.24 483.367 120.224C483.495 122.208 483.687 123.776 483.943 124.928L483.751 125.696C482.087 126.336 479.975 126.912 477.415 127.424C474.919 127.936 472.391 128.352 469.831 128.672C467.335 128.992 465.255 129.152 463.591 129.152Z" fill="#00D0D0"/>
<path d="M501.591 128V94.976C501.591 93.696 501.559 92.032 501.495 89.984C501.495 87.936 501.431 85.92 501.303 83.936C501.239 81.952 501.079 80.384 500.823 79.232L501.015 78.464C502.679 77.824 504.727 77.28 507.159 76.832C509.655 76.384 512.119 76.032 514.551 75.776C517.047 75.52 519.127 75.392 520.791 75.392C522.327 75.392 523.575 75.424 524.535 75.488C525.495 75.552 526.295 75.648 526.935 75.776V83.456H526.167C525.335 83.328 524.343 83.232 523.191 83.168C522.039 83.104 520.983 83.072 520.023 83.072C518.039 83.072 515.959 83.232 513.783 83.552C511.607 83.872 509.719 84.192 508.119 84.512L509.847 82.112C510.231 84.224 510.423 86.848 510.423 89.984V128H501.591Z" fill="#00D0D0"/>
<path d="M555.55 129.152C548.062 129.152 542.43 127.808 538.654 125.12C534.942 122.368 533.086 118.208 533.086 112.64C533.086 108.928 533.982 105.856 535.774 103.424C537.63 100.992 540.222 99.168 543.55 97.952C546.942 96.736 550.942 96.128 555.55 96.128C559.134 96.128 562.11 96.448 564.478 97.088C566.91 97.664 568.99 98.24 570.718 98.816V105.728C568.99 105.152 566.846 104.64 564.286 104.192C561.726 103.68 559.326 103.424 557.086 103.424C551.902 103.424 548.03 104.096 545.47 105.44C542.974 106.784 541.726 109.184 541.726 112.64C541.726 115.904 542.942 118.272 545.374 119.744C547.806 121.152 551.326 121.856 555.934 121.856C558.494 121.856 560.958 121.664 563.326 121.28C565.694 120.832 567.902 120.256 569.95 119.552L568.222 122.144C568.094 121.632 567.966 121.056 567.838 120.416C567.774 119.776 567.71 119.104 567.646 118.4C567.582 117.696 567.518 116.96 567.454 116.192C567.454 115.424 567.454 114.624 567.454 113.792V96.512C567.454 92.416 566.878 89.376 565.726 87.392C564.638 85.344 562.974 84 560.734 83.36C558.558 82.656 555.806 82.304 552.478 82.304C549.982 82.304 547.422 82.624 544.798 83.264C542.238 83.904 540.19 84.608 538.654 85.376H537.886V77.504C540.19 76.544 542.75 75.84 545.566 75.392C548.446 74.88 551.134 74.624 553.63 74.624C556.83 74.624 559.774 74.912 562.462 75.488C565.214 76.064 567.614 77.12 569.662 78.656C571.774 80.128 573.406 82.272 574.558 85.088C575.71 87.904 576.286 91.584 576.286 96.128V108.8C576.286 110.08 576.286 111.744 576.286 113.792C576.35 115.84 576.414 117.856 576.478 119.84C576.606 121.824 576.798 123.392 577.054 124.544L576.862 125.312C574.75 126.08 572.414 126.752 569.854 127.328C567.294 127.904 564.734 128.352 562.174 128.672C559.678 128.992 557.47 129.152 555.55 129.152Z" fill="#00D0D0"/>
<path d="M608.911 151.04C606.607 151.04 604.079 150.816 601.327 150.368C598.575 149.984 596.239 149.376 594.319 148.544V140.672H595.087C597.199 141.632 599.503 142.304 601.999 142.688C604.559 143.136 606.863 143.36 608.911 143.36C613.071 143.36 616.399 142.752 618.895 141.536C621.391 140.32 623.183 138.464 624.271 135.968C625.423 133.472 625.999 130.304 625.999 126.464V89.6C625.999 88.064 626.031 86.624 626.095 85.28C626.223 83.936 626.383 82.656 626.575 81.44L628.207 84.128C626.799 83.68 625.199 83.264 623.407 82.88C621.679 82.496 619.791 82.304 617.743 82.304C613.519 82.304 609.999 83.04 607.183 84.512C604.367 85.92 602.255 88.064 600.847 90.944C599.439 93.76 598.735 97.28 598.735 101.504C598.735 107.648 600.303 112.256 603.439 115.328C606.639 118.4 611.407 119.936 617.743 119.936C619.535 119.936 621.231 119.808 622.831 119.552C624.431 119.296 626.191 118.784 628.111 118.016L627.919 126.08C625.743 126.592 623.823 126.976 622.159 127.232C620.495 127.488 618.895 127.616 617.359 127.616C611.855 127.616 607.023 126.656 602.863 124.736C598.703 122.752 595.471 119.84 593.167 116C590.863 112.096 589.711 107.264 589.711 101.504C589.711 97.344 590.319 93.632 591.535 90.368C592.815 87.04 594.671 84.224 597.103 81.92C599.535 79.552 602.479 77.76 605.935 76.544C609.391 75.264 613.327 74.624 617.743 74.624C620.623 74.624 623.663 74.976 626.863 75.68C630.063 76.32 632.911 77.12 635.407 78.08L635.599 78.848C635.343 80 635.151 81.568 635.023 83.552C634.959 85.536 634.895 87.552 634.831 89.6C634.831 91.648 634.831 93.312 634.831 94.592V126.464C634.831 131.584 633.807 135.968 631.759 139.616C629.775 143.328 626.831 146.144 622.927 148.064C619.087 150.048 614.415 151.04 608.911 151.04Z" fill="#00D0D0"/>
<path d="M688.209 128L669.777 76.928V75.776H678.993L695.505 123.584H693.105L710.097 75.776H718.929V76.928L699.729 128H688.209Z" fill="#00D0D0"/>
<path d="M746.05 129.152C738.562 129.152 732.93 127.808 729.154 125.12C725.442 122.368 723.586 118.208 723.586 112.64C723.586 108.928 724.482 105.856 726.274 103.424C728.13 100.992 730.722 99.168 734.05 97.952C737.442 96.736 741.442 96.128 746.05 96.128C749.634 96.128 752.61 96.448 754.978 97.088C757.41 97.664 759.49 98.24 761.218 98.816V105.728C759.49 105.152 757.346 104.64 754.786 104.192C752.226 103.68 749.826 103.424 747.586 103.424C742.402 103.424 738.53 104.096 735.97 105.44C733.474 106.784 732.226 109.184 732.226 112.64C732.226 115.904 733.442 118.272 735.874 119.744C738.306 121.152 741.826 121.856 746.434 121.856C748.994 121.856 751.458 121.664 753.826 121.28C756.194 120.832 758.402 120.256 760.45 119.552L758.722 122.144C758.594 121.632 758.466 121.056 758.338 120.416C758.274 119.776 758.21 119.104 758.146 118.4C758.082 117.696 758.018 116.96 757.954 116.192C757.954 115.424 757.954 114.624 757.954 113.792V96.512C757.954 92.416 757.378 89.376 756.226 87.392C755.138 85.344 753.474 84 751.234 83.36C749.058 82.656 746.306 82.304 742.978 82.304C740.482 82.304 737.922 82.624 735.298 83.264C732.738 83.904 730.69 84.608 729.154 85.376H728.386V77.504C730.69 76.544 733.25 75.84 736.066 75.392C738.946 74.88 741.634 74.624 744.13 74.624C747.33 74.624 750.274 74.912 752.962 75.488C755.714 76.064 758.114 77.12 760.162 78.656C762.274 80.128 763.906 82.272 765.058 85.088C766.21 87.904 766.786 91.584 766.786 96.128V108.8C766.786 110.08 766.786 111.744 766.786 113.792C766.85 115.84 766.914 117.856 766.978 119.84C767.106 121.824 767.298 123.392 767.554 124.544L767.362 125.312C765.25 126.08 762.914 126.752 760.354 127.328C757.794 127.904 755.234 128.352 752.674 128.672C750.178 128.992 747.97 129.152 746.05 129.152Z" fill="#00D0D0"/>
<path d="M788.851 66.56C787.251 66.56 785.875 66.048 784.723 65.024C783.635 63.936 783.091 62.528 783.091 60.8C783.091 59.072 783.635 57.696 784.723 56.672C785.875 55.584 787.251 55.04 788.851 55.04C790.515 55.04 791.891 55.584 792.979 56.672C794.067 57.696 794.611 59.072 794.611 60.8C794.611 62.528 794.067 63.936 792.979 65.024C791.891 66.048 790.515 66.56 788.851 66.56ZM784.435 128V92.288C784.435 91.008 784.403 89.344 784.339 87.296C784.339 85.248 784.275 83.232 784.147 81.248C784.083 79.264 783.923 77.696 783.667 76.544L783.859 75.776H793.267V128H784.435Z" fill="#00D0D0"/>
<path d="M829.764 129.152C826.5 129.152 823.204 128.8 819.876 128.096C816.548 127.456 813.636 126.656 811.14 125.696L810.948 124.928C811.204 123.776 811.364 122.208 811.428 120.224C811.556 118.24 811.62 116.224 811.62 114.176C811.684 112.128 811.716 110.464 811.716 109.184V71.552C811.716 70.592 811.716 69.408 811.716 68C811.716 66.592 811.684 65.12 811.62 63.584C811.556 61.984 811.46 60.512 811.332 59.168C811.268 57.76 811.14 56.64 810.948 55.808L811.14 55.04H820.548V113.792C820.548 115.712 820.452 117.376 820.26 118.784C820.132 120.128 819.972 121.28 819.78 122.24L818.244 119.552C819.78 120.064 821.54 120.512 823.524 120.896C825.508 121.28 827.588 121.472 829.764 121.472C835.908 121.472 840.452 119.776 843.396 116.384C846.34 112.992 847.812 108.032 847.812 101.504C847.812 95.552 846.276 90.88 843.204 87.488C840.196 84.032 835.716 82.304 829.764 82.304C828.1 82.304 826.66 82.4 825.444 82.592C824.228 82.72 823.012 82.944 821.796 83.264C820.58 83.584 819.14 84.032 817.476 84.608V77.312C819.716 76.352 821.956 75.68 824.196 75.296C826.5 74.848 828.612 74.624 830.532 74.624C836.036 74.624 840.74 75.712 844.644 77.888C848.612 80.064 851.62 83.168 853.668 87.2C855.78 91.232 856.836 96 856.836 101.504C856.836 107.264 855.748 112.224 853.572 116.384C851.396 120.48 848.292 123.648 844.26 125.888C840.228 128.064 835.396 129.152 829.764 129.152Z" fill="#00D0D0"/>
<path d="M871.06 128V71.552C871.06 70.272 871.028 68.608 870.964 66.56C870.964 64.512 870.9 62.496 870.772 60.512C870.708 58.528 870.548 56.96 870.292 55.808L870.484 55.04H879.892V81.056L878.068 78.272C880.116 77.312 882.356 76.48 884.788 75.776C887.284 75.008 890.132 74.624 893.332 74.624C896.02 74.624 898.612 74.976 901.108 75.68C903.668 76.32 905.94 77.504 907.924 79.232C909.908 80.896 911.476 83.2 912.628 86.144C913.844 89.024 914.452 92.736 914.452 97.28V128H905.62V98.432C905.62 94.208 905.012 90.976 903.796 88.736C902.644 86.432 900.98 84.864 898.804 84.032C896.692 83.136 894.228 82.688 891.412 82.688C889.748 82.688 888.084 82.848 886.42 83.168C884.82 83.488 883.284 83.904 881.812 84.416C880.404 84.864 879.124 85.344 877.972 85.856L879.892 81.44V128H871.06Z" fill="#00D0D0"/>
<path d="M950.706 129.152C943.218 129.152 937.586 127.808 933.81 125.12C930.098 122.368 928.242 118.208 928.242 112.64C928.242 108.928 929.138 105.856 930.93 103.424C932.786 100.992 935.378 99.168 938.706 97.952C942.098 96.736 946.098 96.128 950.706 96.128C954.29 96.128 957.266 96.448 959.634 97.088C962.066 97.664 964.146 98.24 965.874 98.816V105.728C964.146 105.152 962.002 104.64 959.442 104.192C956.882 103.68 954.482 103.424 952.242 103.424C947.058 103.424 943.186 104.096 940.626 105.44C938.13 106.784 936.882 109.184 936.882 112.64C936.882 115.904 938.098 118.272 940.53 119.744C942.962 121.152 946.482 121.856 951.09 121.856C953.65 121.856 956.114 121.664 958.482 121.28C960.85 120.832 963.058 120.256 965.106 119.552L963.378 122.144C963.25 121.632 963.122 121.056 962.994 120.416C962.93 119.776 962.866 119.104 962.802 118.4C962.738 117.696 962.674 116.96 962.61 116.192C962.61 115.424 962.61 114.624 962.61 113.792V96.512C962.61 92.416 962.034 89.376 960.882 87.392C959.794 85.344 958.13 84 955.89 83.36C953.714 82.656 950.962 82.304 947.634 82.304C945.138 82.304 942.578 82.624 939.954 83.264C937.394 83.904 935.346 84.608 933.81 85.376H933.042V77.504C935.346 76.544 937.906 75.84 940.722 75.392C943.602 74.88 946.29 74.624 948.786 74.624C951.986 74.624 954.93 74.912 957.618 75.488C960.37 76.064 962.77 77.12 964.818 78.656C966.93 80.128 968.562 82.272 969.714 85.088C970.866 87.904 971.442 91.584 971.442 96.128V108.8C971.442 110.08 971.442 111.744 971.442 113.792C971.506 115.84 971.57 117.856 971.634 119.84C971.762 121.824 971.954 123.392 972.21 124.544L972.018 125.312C969.906 126.08 967.57 126.752 965.01 127.328C962.45 127.904 959.89 128.352 957.33 128.672C954.834 128.992 952.626 129.152 950.706 129.152Z" fill="#00D0D0"/>
<path d="M998.334 128L979.902 76.928V75.776H989.118L1005.63 123.584H1003.23L1020.22 75.776H1029.05V76.928L1009.85 128H998.334Z" fill="#00D0D0"/>
</g>
</g>
<defs>
<filter id="filter0_d_55_2" x="147.216" y="50.04" width="890.838" height="114" filterUnits="userSpaceOnUse" color-interpolation-filters="sRGB">
<feFlood flood-opacity="0" result="BackgroundImageFix"/>
<feColorMatrix in="SourceAlpha" type="matrix" values="0 0 0 0 0 0 0 0 0 0 0 0 0 0 0 0 0 0 127 0" result="hardAlpha"/>
<feOffset dy="4"/>
<feGaussianBlur stdDeviation="4.5"/>
<feComposite in2="hardAlpha" operator="out"/>
<feColorMatrix type="matrix" values="0 0 0 0 0 0 0 0 0 0 0 0 0 0 0 0 0 0 1 0"/>
<feBlend mode="normal" in2="BackgroundImageFix" result="effect1_dropShadow_55_2"/>
<feBlend mode="normal" in="SourceGraphic" in2="effect1_dropShadow_55_2" result="shape"/>
</filter>
<clipPath id="clip0_55_2">
<rect width="1186" height="200" fill="white"/>
</clipPath>
</defs>
</svg>
