<svg width="1186" height="200" viewBox="0 0 1186 200" fill="none" xmlns="http://www.w3.org/2000/svg">
<g clip-path="url(#clip0_16_3)">
<g filter="url(#filter0_d_16_3)">
<path d="M247.368 76.008C247.176 80.104 247.08 84.04 247.08 87.816C247.08 91.72 247.336 97.448 247.848 105C247.912 106.152 248.04 108.488 248.232 112.008C248.424 115.464 248.52 118.632 248.52 121.512C249.16 121.448 249.832 121.352 250.536 121.224C251.304 121.096 251.88 121.032 252.264 121.032C253.672 121.032 254.792 121.384 255.624 122.088C256.456 122.792 256.872 123.88 256.872 125.352C256.872 126.312 256.488 127.048 255.72 127.56C254.952 128.072 253.608 128.456 251.688 128.712C249.832 128.904 247.112 129 243.528 129C239.56 129 236.584 128.872 234.6 128.616C232.616 128.36 231.24 127.88 230.472 127.176C229.704 126.408 229.32 125.288 229.32 123.816C229.32 122.728 229.672 121.992 230.376 121.608C231.08 121.224 232.072 121.032 233.352 121.032L235.368 121.128L238.536 121.32L238.056 109.992C237.672 103.848 237.48 98.216 237.48 93.096C237.48 90.344 237.576 86.568 237.768 81.768L237.96 76.488C235.784 76.616 234.088 76.68 232.872 76.68C231.464 76.68 230.504 76.424 229.992 75.912C229.544 75.4 229.32 74.344 229.32 72.744C229.32 70.952 230.536 69.8 232.968 69.288C235.464 68.776 239.24 68.52 244.296 68.52C248.2 68.52 251.112 68.648 253.032 68.904C255.016 69.16 256.008 69.736 256.008 70.632C256.008 72.808 255.528 74.248 254.568 74.952C253.672 75.592 251.912 75.912 249.288 75.912L247.368 76.008ZM268.781 77.448C268.077 77.448 267.565 77.32 267.245 77.064C266.413 76.552 265.709 75.944 265.133 75.24C264.621 74.536 264.365 73.512 264.365 72.168C264.429 71.208 264.653 70.376 265.037 69.672C265.421 68.904 265.965 68.36 266.669 68.04C268.013 67.336 269.741 66.984 271.853 66.984C273.389 66.984 274.573 67.56 275.405 68.712C276.301 69.8 276.749 71.144 276.749 72.744C276.749 74.664 276.173 76.904 275.021 79.464C273.933 81.96 272.845 83.912 271.757 85.32C270.925 86.28 269.997 87.112 268.973 87.816C267.949 88.52 267.053 88.872 266.285 88.872C264.749 88.872 263.789 88.648 263.405 88.2C263.085 87.688 262.925 86.824 262.925 85.608C262.925 85.096 263.597 84.296 264.941 83.208C266.029 82.248 266.701 81.576 266.957 81.192C267.917 79.912 268.621 78.664 269.069 77.448H268.781ZM345.039 125.64C344.079 123.848 343.471 121.864 343.215 119.688C342.959 117.448 342.831 114.376 342.831 110.472C342.831 106.76 342.319 103.528 341.295 100.776C340.271 98.024 338.159 96.648 334.959 96.648C333.743 96.648 332.527 97.032 331.311 97.8C330.159 98.504 329.295 99.4 328.719 100.488C327.823 102.216 327.215 104.104 326.895 106.152C326.575 108.136 326.415 110.44 326.415 113.064C326.415 114.728 326.511 116.424 326.703 118.152C326.703 118.664 326.735 119.496 326.799 120.648C326.927 121.736 326.991 122.728 326.991 123.624C326.991 127.464 325.647 129.384 322.959 129.384C319.439 129.384 317.583 127.528 317.391 123.816C317.391 121.192 317.423 119.784 317.487 119.592V115.464C317.487 113.16 317.391 110.92 317.199 108.744C317.007 106.568 316.783 104.936 316.527 103.848C315.951 101.736 315.183 100.104 314.223 98.952C313.327 97.8 311.887 97.224 309.903 97.224C307.087 97.224 304.815 98.44 303.087 100.872C301.871 102.792 301.071 105.128 300.687 107.88C300.303 111.4 300.015 114.184 299.823 116.232C299.695 118.216 299.631 120.52 299.631 123.144C299.631 125 299.311 126.504 298.671 127.656C298.095 128.808 296.975 129.384 295.311 129.384C294.095 129.384 292.815 129.064 291.471 128.424C290.191 127.72 289.551 126.792 289.551 125.64C289.551 124.424 289.679 123.208 289.935 121.992C290.511 118.344 290.799 111.816 290.799 102.408C290.799 100.872 290.415 99.4 289.647 97.992C288.943 96.52 288.079 95.784 287.055 95.784C286.799 95.784 286.319 95.912 285.615 96.168C284.975 96.424 284.495 96.552 284.175 96.552C283.343 96.552 282.575 96.168 281.871 95.4C281.231 94.632 280.911 93.992 280.911 93.48C280.911 91.88 281.679 90.536 283.215 89.448C284.815 88.296 286.479 87.72 288.207 87.72C290.575 87.72 292.591 88.456 294.255 89.928C295.919 91.4 297.199 93.448 298.095 96.072C299.567 93.512 301.551 91.464 304.047 89.928C306.543 88.328 309.327 87.528 312.399 87.528C314.319 87.528 315.855 87.784 317.007 88.296C318.223 88.744 319.215 89.416 319.983 90.312C320.751 91.144 321.743 92.424 322.959 94.152C324.559 92.104 326.607 90.504 329.103 89.352C331.663 88.2 334.287 87.624 336.975 87.624C340.175 87.624 343.055 88.936 345.615 91.56C348.175 94.12 349.903 97.096 350.799 100.488C351.247 102.216 351.471 105.544 351.471 110.472L351.855 116.04C352.175 119.368 353.263 121.384 355.119 122.088C357.295 122.728 358.383 123.4 358.383 124.104C358.383 125.64 357.999 126.76 357.231 127.464C356.655 127.848 355.855 128.264 354.831 128.712C353.807 129.16 353.007 129.384 352.431 129.384C348.975 129.384 346.511 128.136 345.039 125.64Z" fill="#00D0D0"/>
</g>
<path d="M403.252 136.797C407.059 129.923 416.941 129.923 420.748 136.797L444.482 179.655C448.174 186.32 443.353 194.5 435.734 194.5H388.266C380.647 194.5 375.826 186.32 379.518 179.655L403.252 136.797Z" fill="#858585"/>
<path d="M397 48L455.5 14L395 60.5L467.5 18.5L396 68L477.5 25L398.5 79L485.5 35L403.5 87.5L491 48L410.5 96.5L493 60.5L423 105L491 73L446 109.5L482.5 90.5" stroke="#858585" stroke-width="2"/>
<circle cx="420" cy="71" r="49" stroke="#858585" stroke-width="2"/>
<path d="M1040 93.5L1050.5 84L1040 99.5L1059 84L1040 107L1068 84L1040 116L1079 84L1040 126L1091 84L1040 135L1102.5 84L1040 146L1118.5 84L1040 159L1118.5 99.5L1055.5 159L1118.5 116L1074.5 159L1118.5 135L1094 159L1118.5 146L1111.5 159" stroke="#858585" stroke-width="2"/>
<rect x="1062" y="72" width="79" height="75" rx="9" stroke="#858585" stroke-width="2"/>
<path d="M42 118.908L53.3182 129L48.2879 110.077L62.75 129L53.3182 100.615L73.4394 129L58.9773 91.7846L83.5 129L64.6364 82.9538L92.9318 129L69.6667 73.4923L102.364 129L75.3258 66.5538L113.053 129L78.4697 57.7231L125 129L86.0152 47" stroke="#858585" stroke-width="2"/>
<path d="M124.324 27.3862L171.778 107.935C175.116 113.602 171.031 120.75 164.454 120.75H69.5458C62.9692 120.75 58.884 113.602 62.2222 107.935L109.676 27.3862C112.964 21.8056 121.036 21.8056 124.324 27.3862Z" stroke="#858585" stroke-width="3"/>
<rect x="826" y="160" width="40" height="40" rx="10" fill="#858585"/>
<circle cx="752.5" cy="41.5" r="29.5" fill="#858585"/>
<g filter="url(#filter1_d_16_3)">
<path d="M445.768 124.392C445.768 125.8 445 126.984 443.464 127.944C441.992 128.904 440.616 129.384 439.336 129.384C436.904 129.384 434.952 129.096 433.48 128.52C432.072 127.88 430.76 126.728 429.544 125.064C427.88 126.536 425.608 127.656 422.728 128.424C419.848 129.128 417.192 129.48 414.76 129.48C410.792 129.48 407.528 128.424 404.968 126.312C402.408 124.136 401.128 120.968 401.128 116.808C401.128 115.016 401.608 113.384 402.568 111.912C403.528 110.376 404.84 109.032 406.504 107.88C408.36 106.664 410.472 105.736 412.84 105.096C415.208 104.392 417.672 104.04 420.232 104.04C421.576 104.04 423.176 104.296 425.032 104.808C426.888 105.32 428.328 105.864 429.352 106.44V104.904C429.352 101.448 428.52 99.08 426.856 97.8C425.192 96.456 422.504 95.784 418.792 95.784C417.704 95.784 416.616 96.008 415.528 96.456C414.504 96.904 413.32 97.512 411.976 98.28C410.184 99.24 408.488 99.72 406.888 99.72C406.312 99.72 405.768 99.336 405.256 98.568C404.744 97.736 404.488 97 404.488 96.36C404.488 94.504 405.352 92.904 407.08 91.56C408.872 90.216 410.984 89.224 413.416 88.584C415.848 87.88 418.024 87.528 419.944 87.528C421.864 87.528 424.072 87.912 426.568 88.68C429.064 89.384 431.112 90.376 432.712 91.656C434.632 93.32 436.104 95.272 437.128 97.512C438.216 99.688 438.76 102.088 438.76 104.712C438.76 105.544 438.696 106.792 438.568 108.456C438.44 110.248 438.376 111.784 438.376 113.064C438.376 113.64 438.312 114.504 438.184 115.656C438.056 117.064 437.992 118.184 437.992 119.016C437.992 119.784 438.28 120.456 438.856 121.032C439.432 121.544 440.104 121.8 440.872 121.8L443.56 121.704C444.264 121.704 444.808 121.96 445.192 122.472C445.576 122.984 445.768 123.624 445.768 124.392ZM414.856 121.896C417.608 121.896 419.912 121.608 421.768 121.032C423.624 120.456 425.864 119.4 428.488 117.864C428.744 116.776 428.904 115.336 428.968 113.544C425.448 111.88 422.536 111.048 420.232 111.048C417.608 111.048 415.272 111.528 413.224 112.488C411.176 113.448 410.152 115.144 410.152 117.576C410.152 118.792 410.664 119.816 411.688 120.648C412.712 121.48 413.768 121.896 414.856 121.896ZM495.927 121.608C496.247 121.736 496.759 121.896 497.463 122.088C498.167 122.28 498.679 122.472 498.999 122.664C499.319 122.856 499.479 123.144 499.479 123.528C499.543 125.064 498.967 126.344 497.75 127.368C496.599 128.328 495.223 128.808 493.623 128.808C491.127 128.808 489.175 128.136 487.767 126.792C486.359 125.448 485.335 123.4 484.695 120.648C484.439 119.56 484.311 118.056 484.311 116.136C484.311 115.048 484.375 113.288 484.503 110.856C484.631 108.296 484.695 106.248 484.695 104.712C484.695 102.472 484.055 100.52 482.775 98.856C481.559 97.128 479.831 96.264 477.591 96.264C476.247 96.264 474.839 96.68 473.367 97.512C471.895 98.28 470.871 99.24 470.295 100.392C469.335 102.248 468.663 104.264 468.279 106.44C467.575 110.28 467.223 114.28 467.223 118.44C467.223 120.424 467.255 121.96 467.319 123.048C467.319 123.304 467.319 123.816 467.319 124.584C467.383 125.288 467.319 125.96 467.127 126.6C466.999 127.176 466.743 127.72 466.359 128.232C466.039 128.552 465.527 128.808 464.823 129C464.183 129.256 463.575 129.384 462.999 129.384C462.103 129.384 460.983 129 459.639 128.232C458.295 127.464 457.527 126.6 457.335 125.64L457.239 124.008C457.239 123.432 457.303 122.76 457.431 121.992C458.199 117.512 458.583 113.608 458.583 110.28C458.583 108.808 458.551 107.656 458.487 106.824L458.391 102.312C458.391 100.776 458.007 99.304 457.239 97.896C456.471 96.424 455.575 95.688 454.551 95.688C454.231 95.688 453.783 95.816 453.207 96.072C452.631 96.264 452.151 96.36 451.767 96.36C451.127 96.36 450.423 96.04 449.655 95.4C448.951 94.76 448.599 94.088 448.599 93.384C448.599 92.04 449.047 90.952 449.943 90.12C450.903 89.352 451.831 88.744 452.727 88.296C453.687 87.848 454.775 87.624 455.991 87.624C457.015 87.624 457.847 87.72 458.487 87.912C459.127 88.104 459.991 88.52 461.079 89.16C461.655 89.48 462.327 90.184 463.095 91.272C463.863 92.36 464.503 93.896 465.015 95.88C466.679 92.808 468.727 90.664 471.159 89.448C473.655 88.168 476.823 87.528 480.663 87.528C482.135 87.528 483.703 88.008 485.367 88.968C487.095 89.928 488.567 91.048 489.783 92.328C490.935 93.736 491.895 95.496 492.663 97.608C493.431 99.656 493.815 101.512 493.815 103.176C493.815 104.136 493.751 105.704 493.623 107.88C493.431 109.608 493.335 111.432 493.335 113.352C493.335 117.832 494.199 120.584 495.927 121.608ZM510.56 87.336C514.784 87.336 516.896 90.12 516.896 95.688C516.896 96.392 516.832 97.96 516.704 100.392C516.576 103.208 516.512 105.416 516.512 107.016C516.512 111.496 517.12 115.112 518.336 117.864C518.784 118.76 519.584 119.464 520.736 119.976C521.952 120.488 522.976 120.744 523.808 120.744C525.088 120.744 526.144 120.584 526.976 120.264C527.808 119.944 528.576 119.464 529.28 118.824C530.048 118.184 530.784 117.48 531.488 116.712C532.704 115.368 533.472 113.832 533.792 112.104C534.176 110.312 534.4 107.944 534.464 105C534.464 103.144 534.56 101.352 534.752 99.624C535.136 96.808 535.328 94.184 535.328 91.752C535.328 90.408 535.68 89.288 536.384 88.392C537.152 87.432 538.24 86.952 539.648 86.952C540.352 86.952 541.184 87.208 542.144 87.72C543.168 88.168 543.84 88.68 544.16 89.256C544.608 90.024 544.832 91.08 544.832 92.424C544.832 93.256 544.736 94.024 544.544 94.728C544.224 95.688 544.064 96.904 544.064 98.376C544.064 99.144 544.128 100.424 544.256 102.216C544.448 103.56 544.544 104.936 544.544 106.344C544.544 110.632 544.864 113.8 545.504 115.848C546.208 118.024 547.168 119.944 548.384 121.608C549.664 122.952 550.528 123.944 550.976 124.584C551.424 125.16 551.648 125.672 551.648 126.12C551.648 126.888 551.264 127.624 550.496 128.328C549.728 129.032 548.928 129.384 548.096 129.384C545.728 129.384 543.648 128.584 541.856 126.984C540.128 125.32 538.848 123.208 538.016 120.648C537.312 121.48 536.384 122.504 535.232 123.72C534.08 124.936 532.992 125.928 531.968 126.696C529.472 128.488 526.272 129.384 522.368 129.384C520.768 129.384 519.008 128.904 517.088 127.944C515.232 126.984 513.536 125.736 512 124.2C510.464 122.6 509.408 120.904 508.832 119.112C508.768 118.984 508.576 118.472 508.256 117.576C508 116.68 507.872 115.336 507.872 113.544L507.776 98.184C507.776 97.288 507.552 95.88 507.104 93.96C506.72 92.68 506.528 91.72 506.528 91.08C506.528 89.992 506.88 89.096 507.584 88.392C508.352 87.688 509.344 87.336 510.56 87.336ZM559.222 95.304C557.558 94.152 556.726 92.936 556.726 91.656C556.726 90.76 557.11 89.928 557.878 89.16C558.646 88.392 559.798 88.008 561.334 88.008C563.126 88.008 564.726 88.488 566.134 89.448C567.606 90.344 568.63 91.656 569.206 93.384C570.678 91.656 572.342 90.28 574.198 89.256C576.118 88.232 578.07 87.72 580.054 87.72C582.422 87.72 584.566 88.36 586.486 89.64C588.406 90.92 589.366 92.648 589.366 94.824C589.366 96.04 588.822 97.288 587.734 98.568C586.71 99.848 585.654 100.488 584.566 100.488C583.99 100.488 583.478 100.36 583.03 100.104C582.646 99.784 582.166 99.336 581.59 98.76C580.95 98.12 580.406 97.672 579.958 97.416C579.51 97.096 578.998 96.936 578.422 96.936C577.398 96.936 576.438 97.096 575.542 97.416C574.646 97.736 574.038 98.12 573.718 98.568C572.694 100.168 571.926 101.608 571.414 102.888C570.966 104.168 570.742 105.544 570.742 107.016C570.742 108.104 570.71 108.968 570.646 109.608L570.55 115.08C570.55 115.912 570.582 116.84 570.646 117.864C570.71 118.888 570.774 119.656 570.838 120.168C571.03 121.896 571.126 123.56 571.126 125.16C571.126 126.248 570.71 127.208 569.878 128.04C569.046 128.872 568.022 129.288 566.806 129.288C564.886 129.288 563.478 128.936 562.582 128.232C561.686 127.464 561.238 126.088 561.238 124.104L561.142 117.96C561.078 116.744 561.046 115.016 561.046 112.776L561.142 106.44C561.27 103.368 561.334 100.872 561.334 98.952C561.334 98.248 561.174 97.608 560.854 97.032C560.598 96.456 560.054 95.88 559.222 95.304ZM638.61 124.392C638.61 125.8 637.842 126.984 636.306 127.944C634.77 128.904 633.362 129.384 632.082 129.384C629.714 129.384 627.794 129.096 626.322 128.52C624.914 127.88 623.57 126.728 622.29 125.064C620.69 126.536 618.45 127.656 615.57 128.424C612.69 129.128 610.034 129.48 607.602 129.48C603.634 129.48 600.338 128.424 597.714 126.312C595.154 124.136 593.874 120.968 593.874 116.808C593.874 115.016 594.418 113.224 595.506 111.432C596.594 109.576 597.938 108.104 599.538 107.016C601.266 105.864 603.218 105.096 605.394 104.712C607.57 104.264 610.098 104.04 612.978 104.04C614.322 104.04 615.922 104.296 617.778 104.808C619.634 105.32 621.106 105.864 622.194 106.44V104.904C622.194 101.448 621.33 99.08 619.602 97.8C617.938 96.456 615.25 95.784 611.538 95.784C610.386 95.784 609.33 95.976 608.37 96.36C607.474 96.68 606.418 97.16 605.202 97.8C604.05 98.44 602.962 98.76 601.938 98.76C601.042 98.76 600.178 98.408 599.346 97.704C598.514 96.936 598.098 96.136 598.098 95.304C598.098 92.616 599.762 90.664 603.09 89.448C606.482 88.168 609.938 87.528 613.458 87.528C615.25 87.528 617.298 87.912 619.602 88.68C621.906 89.384 623.858 90.376 625.458 91.656C627.378 93.256 628.85 95.176 629.874 97.416C630.962 99.656 631.506 102.088 631.506 104.712C631.506 105.544 631.442 106.792 631.314 108.456C631.186 110.248 631.122 111.784 631.122 113.064L631.026 115.656C630.898 117.064 630.834 118.184 630.834 119.016C630.834 119.784 631.09 120.456 631.602 121.032C632.178 121.544 632.85 121.8 633.618 121.8L636.306 121.704C637.01 121.704 637.554 121.992 637.938 122.568C638.386 123.08 638.61 123.688 638.61 124.392ZM607.602 121.896C610.354 121.896 612.658 121.608 614.514 121.032C616.37 120.456 618.61 119.4 621.234 117.864C621.49 116.776 621.65 115.336 621.714 113.544C618.194 111.88 615.282 111.048 612.978 111.048C610.802 111.048 609.042 111.144 607.698 111.336C606.354 111.464 605.138 112.008 604.049 112.968C602.962 113.928 602.418 115.464 602.418 117.576C602.418 118.792 602.994 119.816 604.146 120.648C605.362 121.48 606.514 121.896 607.602 121.896ZM652.007 127.56C651.559 126.6 651.335 125.48 651.335 124.2C651.335 122.984 652.231 121.16 654.023 118.728C650.951 117.704 648.519 115.88 646.727 113.256C644.999 110.632 644.135 107.56 644.135 104.04C644.135 101.736 644.679 99.656 645.767 97.8C646.855 95.88 648.359 94.056 650.279 92.328C653.543 89.384 658.055 87.912 663.815 87.912C666.119 87.912 668.967 88.424 672.359 89.448C676.391 85.992 679.943 84.264 683.015 84.264C684.935 84.264 686.311 84.648 687.143 85.416C688.039 86.12 688.487 87.368 688.487 89.16C688.487 89.864 688.199 90.536 687.623 91.176C687.111 91.752 686.439 92.04 685.607 92.04L682.151 91.944C679.975 91.944 678.407 92.36 677.447 93.192C678.663 94.664 679.655 96.552 680.423 98.856C681.255 101.16 681.671 103.784 681.671 106.728C681.671 110.632 678.983 114.28 673.607 117.672C670.279 119.464 666.407 120.392 661.991 120.456C661.479 120.968 661.031 121.448 660.647 121.896C660.327 122.28 660.167 122.6 660.167 122.856C660.167 123.56 660.775 124.104 661.991 124.488C663.207 124.872 665.063 125.16 667.559 125.352C669.415 125.48 671.495 125.896 673.799 126.6C676.167 127.24 678.023 127.976 679.367 128.808C681.031 130.024 682.183 131.336 682.823 132.744C683.527 134.152 683.879 135.912 683.879 138.024C683.879 140.776 682.599 143.08 680.039 144.936C677.543 146.856 674.599 148.264 671.207 149.16C667.815 150.056 664.839 150.504 662.279 150.504C659.207 150.504 656.583 150.12 654.407 149.352C652.295 148.648 650.279 147.656 648.359 146.376C647.015 145.416 645.959 144.2 645.191 142.728C644.423 141.256 644.039 139.72 644.039 138.12C644.039 136.84 644.999 135.112 646.919 132.936C648.903 130.76 650.823 129.256 652.679 128.424C652.487 128.232 652.263 127.944 652.007 127.56ZM661.703 112.584C664.711 112.584 667.239 111.784 669.287 110.184C671.335 108.52 672.359 106.248 672.359 103.368C672.359 101.064 671.687 99.24 670.343 97.896C668.999 96.488 667.111 95.784 664.679 95.784C659.623 95.784 656.327 96.904 654.791 99.144C654.407 99.656 654.023 100.648 653.639 102.12C653.255 103.528 653.063 104.616 653.063 105.384C653.063 106.472 653.447 107.592 654.215 108.744C655.047 109.832 656.135 110.76 657.479 111.528C658.823 112.232 660.231 112.584 661.703 112.584ZM653.063 138.792C653.063 139.88 654.055 140.808 656.039 141.576C658.087 142.408 660.263 142.824 662.567 142.824C665.127 142.824 667.751 142.344 670.439 141.384C673.191 140.488 674.567 139.272 674.567 137.736C674.567 135.496 672.583 134.056 668.615 133.416C664.263 132.648 660.839 131.944 658.343 131.304C658.087 132.2 657.223 133.352 655.751 134.76C654.791 135.72 654.087 136.456 653.639 136.968C653.255 137.544 653.063 138.152 653.063 138.792ZM737.86 104.328C738.052 103.816 738.724 101.96 739.876 98.76C741.092 95.56 742.212 93.128 743.236 91.464C744.9 88.84 746.372 87.528 747.652 87.528C749.444 87.528 750.82 87.88 751.78 88.584C752.74 89.224 753.22 90.152 753.22 91.368C753.22 91.944 752.964 92.744 752.452 93.768C752.004 94.792 751.748 95.4 751.684 95.592C749.124 101.224 746.82 107.272 744.772 113.736L742.756 121.224C741.988 123.656 740.676 125.64 738.82 127.176C736.964 128.648 734.788 129.384 732.292 129.384C730.052 129.384 727.972 128.36 726.052 126.312C724.9 124.52 723.684 122.248 722.404 119.496C721.188 116.744 720.132 114.056 719.236 111.432L715.876 101.352C715.172 99.368 714.596 97.672 714.148 96.264C713.764 94.856 713.572 93.576 713.572 92.424C713.508 91.08 713.892 89.992 714.724 89.16C715.556 88.328 716.708 87.912 718.18 87.912C719.844 87.912 721.028 88.264 721.732 88.968C722.436 89.608 723.076 90.632 723.652 92.04C723.908 93.512 724.612 96.52 725.764 101.064L726.436 103.752C727.012 105.928 727.748 108.136 728.644 110.376C729.54 112.616 730.436 114.76 731.332 116.808C731.204 116.488 731.652 117.544 732.676 119.976C733.316 118.12 734.052 115.848 734.884 113.16L737.86 104.328ZM803.237 124.392C803.237 125.8 802.469 126.984 800.933 127.944C799.461 128.904 798.085 129.384 796.805 129.384C794.373 129.384 792.421 129.096 790.949 128.52C789.541 127.88 788.229 126.728 787.013 125.064C785.349 126.536 783.077 127.656 780.197 128.424C777.317 129.128 774.661 129.48 772.229 129.48C768.261 129.48 764.997 128.424 762.437 126.312C759.877 124.136 758.597 120.968 758.597 116.808C758.597 115.016 759.077 113.384 760.037 111.912C760.997 110.376 762.309 109.032 763.973 107.88C765.829 106.664 767.941 105.736 770.309 105.096C772.677 104.392 775.141 104.04 777.701 104.04C779.045 104.04 780.645 104.296 782.501 104.808C784.357 105.32 785.797 105.864 786.821 106.44V104.904C786.821 101.448 785.989 99.08 784.325 97.8C782.661 96.456 779.973 95.784 776.261 95.784C775.173 95.784 774.085 96.008 772.997 96.456C771.973 96.904 770.789 97.512 769.445 98.28C767.653 99.24 765.957 99.72 764.357 99.72C763.781 99.72 763.237 99.336 762.725 98.568C762.213 97.736 761.957 97 761.957 96.36C761.957 94.504 762.821 92.904 764.549 91.56C766.341 90.216 768.453 89.224 770.885 88.584C773.317 87.88 775.493 87.528 777.413 87.528C779.333 87.528 781.541 87.912 784.037 88.68C786.533 89.384 788.581 90.376 790.181 91.656C792.101 93.32 793.573 95.272 794.597 97.512C795.685 99.688 796.229 102.088 796.229 104.712C796.229 105.544 796.165 106.792 796.037 108.456C795.909 110.248 795.845 111.784 795.845 113.064C795.845 113.64 795.781 114.504 795.653 115.656C795.525 117.064 795.461 118.184 795.461 119.016C795.461 119.784 795.749 120.456 796.325 121.032C796.901 121.544 797.573 121.8 798.341 121.8L801.029 121.704C801.733 121.704 802.277 121.96 802.661 122.472C803.045 122.984 803.237 123.624 803.237 124.392ZM772.325 121.896C775.077 121.896 777.381 121.608 779.237 121.032C781.093 120.456 783.333 119.4 785.957 117.864C786.213 116.776 786.373 115.336 786.437 113.544C782.917 111.88 780.005 111.048 777.701 111.048C775.077 111.048 772.741 111.528 770.693 112.488C768.645 113.448 767.621 115.144 767.621 117.576C767.621 118.792 768.133 119.816 769.157 120.648C770.181 121.48 771.237 121.896 772.325 121.896ZM814.515 67.368C816.755 67.56 818.707 68.168 820.371 69.192C822.035 70.152 822.867 71.624 822.867 73.608C822.867 75.08 822.163 76.264 820.755 77.16C819.411 77.992 817.779 78.408 815.859 78.408C814.003 78.408 812.723 77.928 812.019 76.968C811.315 76.008 810.963 75.016 810.963 73.992C810.963 72.072 811.155 70.472 811.539 69.192C811.987 67.912 812.979 67.304 814.515 67.368ZM822.195 109.896V112.68C822.195 115.176 822.259 117.544 822.387 119.784C822.579 121.96 822.803 124.168 823.059 126.408C823.059 127.176 822.611 127.88 821.715 128.52C820.819 129.096 819.987 129.384 819.219 129.384C818.003 129.384 816.755 129.16 815.475 128.712C814.259 128.2 813.523 127.592 813.267 126.888C812.883 124.84 812.691 123.016 812.691 121.416C812.691 116.168 812.531 110.28 812.211 103.752C811.955 97.992 811.827 93.96 811.827 91.656C811.827 90.504 812.403 89.512 813.555 88.68C814.707 87.848 815.923 87.432 817.203 87.432C819.059 87.432 820.339 87.848 821.043 88.68C821.811 89.512 822.195 90.824 822.195 92.616V109.896ZM836.486 111.72C836.486 108.136 836.518 105.416 836.582 103.56L836.678 94.44C836.678 90.728 836.582 86.664 836.39 82.248C836.326 80.904 836.102 79.048 835.718 76.68C835.206 73.096 834.95 70.408 834.95 68.616C834.95 65.672 836.422 64.2 839.366 64.2C841.222 64.2 842.534 64.712 843.302 65.736C844.134 66.696 844.71 68.232 845.03 70.344C845.67 74.76 845.99 79.944 845.99 85.896C845.99 87.688 845.926 90.376 845.798 93.96C847.014 92.04 848.582 90.536 850.502 89.448C852.486 88.36 854.438 87.816 856.358 87.816C861.926 87.816 866.726 90.12 870.758 94.728C871.846 96.328 872.806 98.248 873.638 100.488C874.534 102.664 874.982 104.552 874.982 106.152C874.982 108.968 874.662 111.56 874.022 113.928C873.446 116.296 872.39 118.6 870.854 120.84C869.318 123.08 867.366 124.904 864.998 126.312C862.694 127.72 860.006 128.424 856.934 128.424C854.246 128.424 851.814 127.88 849.638 126.792C847.526 125.704 845.83 124.264 844.55 122.472C844.23 124.072 843.526 125.672 842.438 127.272C841.35 128.808 840.102 129.576 838.694 129.576C837.542 129.576 836.582 129.288 835.814 128.712C835.046 128.072 834.662 127.144 834.662 125.928C834.662 125.032 834.854 123.912 835.238 122.568C835.622 120.712 835.91 119.016 836.102 117.48C836.358 115.88 836.486 113.96 836.486 111.72ZM854.534 120.456C857.67 120.456 860.294 119.368 862.406 117.192C864.518 114.952 865.574 111.944 865.574 108.168C865.574 104.712 864.646 101.736 862.79 99.24C862.15 98.408 861.222 97.736 860.006 97.224C858.854 96.712 857.702 96.456 856.55 96.456C853.862 96.456 851.59 97.256 849.734 98.856C847.878 100.392 846.822 102.536 846.566 105.288C846.31 109 846.182 112.2 846.182 114.888C846.95 116.36 848.102 117.672 849.638 118.824C851.238 119.912 852.87 120.456 854.534 120.456ZM895.673 68.136C895.673 69.8 895.641 71.752 895.577 73.992C895.513 76.168 895.449 77.832 895.385 78.984C895.193 82.248 895.097 85.512 895.097 88.776C895.097 93.064 895.193 96.52 895.385 99.144C896.857 95.496 898.937 92.744 901.625 90.888C904.313 88.968 907.385 88.008 910.841 88.008C913.209 88.008 915.417 89.064 917.465 91.176C919.513 93.288 920.825 95.752 921.401 98.568C921.465 98.888 921.497 99.368 921.497 100.008C921.497 100.776 921.433 101.992 921.305 103.656C921.113 105 921.017 106.344 921.017 107.688C921.017 111.144 921.145 113.832 921.401 115.752C921.657 117.608 922.201 119.144 923.033 120.36C923.865 121.512 925.177 122.44 926.969 123.144C927.673 123.4 928.153 123.752 928.409 124.2C928.729 124.584 928.889 125.192 928.889 126.024C928.889 127.176 928.281 128.04 927.065 128.616C925.913 129.192 924.793 129.48 923.705 129.48C921.465 129.48 919.449 128.872 917.657 127.656C915.865 126.44 914.521 124.84 913.625 122.856C912.985 121.512 912.569 119.912 912.377 118.056C912.185 116.2 912.089 114.024 912.089 111.528L912.185 103.176C912.185 98.632 910.713 96.36 907.769 96.36C905.657 96.36 903.609 98.088 901.625 101.544C899.641 105 898.041 109.064 896.825 113.736C895.609 118.408 895.001 122.248 895.001 125.256C895.001 126.664 894.553 127.72 893.657 128.424C892.825 129.064 891.961 129.384 891.065 129.384C889.657 129.384 888.377 128.968 887.225 128.136C886.073 127.24 885.497 126.248 885.497 125.16C885.945 120.36 886.169 112.328 886.169 101.064C886.169 99.016 886.009 91.432 885.689 78.312L885.401 69.48C885.401 68.072 886.041 66.856 887.321 65.832C888.601 64.744 890.041 64.2 891.641 64.2C893.049 64.2 894.073 64.52 894.713 65.16C895.353 65.8 895.673 66.792 895.673 68.136ZM978.735 124.392C978.735 125.8 977.967 126.984 976.431 127.944C974.895 128.904 973.487 129.384 972.207 129.384C969.839 129.384 967.919 129.096 966.447 128.52C965.039 127.88 963.695 126.728 962.415 125.064C960.815 126.536 958.575 127.656 955.695 128.424C952.815 129.128 950.159 129.48 947.727 129.48C943.759 129.48 940.463 128.424 937.839 126.312C935.279 124.136 933.999 120.968 933.999 116.808C933.999 115.016 934.543 113.224 935.631 111.432C936.719 109.576 938.063 108.104 939.663 107.016C941.391 105.864 943.343 105.096 945.519 104.712C947.695 104.264 950.223 104.04 953.103 104.04C954.447 104.04 956.047 104.296 957.903 104.808C959.759 105.32 961.231 105.864 962.319 106.44V104.904C962.319 101.448 961.455 99.08 959.727 97.8C958.063 96.456 955.375 95.784 951.663 95.784C950.511 95.784 949.455 95.976 948.495 96.36C947.599 96.68 946.543 97.16 945.327 97.8C944.175 98.44 943.087 98.76 942.062 98.76C941.167 98.76 940.303 98.408 939.471 97.704C938.639 96.936 938.223 96.136 938.223 95.304C938.223 92.616 939.887 90.664 943.215 89.448C946.607 88.168 950.063 87.528 953.583 87.528C955.375 87.528 957.423 87.912 959.727 88.68C962.031 89.384 963.983 90.376 965.583 91.656C967.503 93.256 968.975 95.176 969.999 97.416C971.087 99.656 971.631 102.088 971.631 104.712C971.631 105.544 971.567 106.792 971.439 108.456C971.311 110.248 971.247 111.784 971.247 113.064L971.151 115.656C971.023 117.064 970.959 118.184 970.959 119.016C970.959 119.784 971.215 120.456 971.727 121.032C972.303 121.544 972.975 121.8 973.743 121.8L976.431 121.704C977.135 121.704 977.679 121.992 978.062 122.568C978.511 123.08 978.735 123.688 978.735 124.392ZM947.727 121.896C950.479 121.896 952.783 121.608 954.639 121.032C956.495 120.456 958.735 119.4 961.359 117.864C961.615 116.776 961.775 115.336 961.839 113.544C958.319 111.88 955.407 111.048 953.103 111.048C950.927 111.048 949.167 111.144 947.823 111.336C946.479 111.464 945.263 112.008 944.174 112.968C943.087 113.928 942.543 115.464 942.543 117.576C942.543 118.792 943.119 119.816 944.271 120.648C945.487 121.48 946.639 121.896 947.727 121.896ZM1007.2 104.328C1007.4 103.816 1008.07 101.96 1009.22 98.76C1010.44 95.56 1011.56 93.128 1012.58 91.464C1014.24 88.84 1015.72 87.528 1017 87.528C1018.79 87.528 1020.16 87.88 1021.12 88.584C1022.08 89.224 1022.56 90.152 1022.56 91.368C1022.56 91.944 1022.31 92.744 1021.8 93.768C1021.35 94.792 1021.09 95.4 1021.03 95.592C1018.47 101.224 1016.16 107.272 1014.12 113.736L1012.1 121.224C1011.33 123.656 1010.02 125.64 1008.16 127.176C1006.31 128.648 1004.13 129.384 1001.64 129.384C999.396 129.384 997.316 128.36 995.396 126.312C994.244 124.52 993.028 122.248 991.748 119.496C990.532 116.744 989.476 114.056 988.58 111.432L985.22 101.352C984.516 99.368 983.94 97.672 983.492 96.264C983.108 94.856 982.916 93.576 982.916 92.424C982.852 91.08 983.236 89.992 984.068 89.16C984.9 88.328 986.052 87.912 987.524 87.912C989.188 87.912 990.372 88.264 991.076 88.968C991.78 89.608 992.42 90.632 992.996 92.04C993.252 93.512 993.956 96.52 995.108 101.064L995.78 103.752C996.356 105.928 997.092 108.136 997.988 110.376C998.884 112.616 999.78 114.76 1000.68 116.808C1000.55 116.488 1001 117.544 1002.02 119.976C1002.66 118.12 1003.4 115.848 1004.23 113.16L1007.2 104.328Z" fill="#00D0D0"/>
</g>
</g>
<defs>
<filter id="filter0_d_16_3" x="225.32" y="66.984" width="137.063" height="70.4" filterUnits="userSpaceOnUse" color-interpolation-filters="sRGB">
<feFlood flood-opacity="0" result="BackgroundImageFix"/>
<feColorMatrix in="SourceAlpha" type="matrix" values="0 0 0 0 0 0 0 0 0 0 0 0 0 0 0 0 0 0 127 0" result="hardAlpha"/>
<feOffset dy="4"/>
<feGaussianBlur stdDeviation="2"/>
<feComposite in2="hardAlpha" operator="out"/>
<feColorMatrix type="matrix" values="0 0 0 0 0 0 0 0 0 0 0 0 0 0 0 0 0 0 1 0"/>
<feBlend mode="normal" in2="BackgroundImageFix" result="effect1_dropShadow_16_3"/>
<feBlend mode="normal" in="SourceGraphic" in2="effect1_dropShadow_16_3" result="shape"/>
</filter>
<filter id="filter1_d_16_3" x="397.128" y="64.2" width="629.436" height="94.3041" filterUnits="userSpaceOnUse" color-interpolation-filters="sRGB">
<feFlood flood-opacity="0" result="BackgroundImageFix"/>
<feColorMatrix in="SourceAlpha" type="matrix" values="0 0 0 0 0 0 0 0 0 0 0 0 0 0 0 0 0 0 127 0" result="hardAlpha"/>
<feOffset dy="4"/>
<feGaussianBlur stdDeviation="2"/>
<feComposite in2="hardAlpha" operator="out"/>
<feColorMatrix type="matrix" values="0 0 0 0 0 0 0 0 0 0 0 0 0 0 0 0 0 0 1 0"/>
<feBlend mode="normal" in2="BackgroundImageFix" result="effect1_dropShadow_16_3"/>
<feBlend mode="normal" in="SourceGraphic" in2="effect1_dropShadow_16_3" result="shape"/>
</filter>
<clipPath id="clip0_16_3">
<rect width="1186" height="200" fill="white"/>
</clipPath>
</defs>
</svg>
