<svg width="1186" height="1160" viewBox="0 0 1186 1160" fill="none" xmlns="http://www.w3.org/2000/svg">
<g clip-path="url(#clip0_553_20)">
<rect width="1186" height="1160" fill="#101010"/>
<path d="M502.963 256.823C505.773 256.823 508.529 257.147 511.23 257.796C513.986 258.444 516.607 259.417 519.093 260.714C521.578 261.957 523.767 263.632 525.658 265.739C527.604 267.847 528.657 270.359 528.819 273.277V276.682V290.542C528.495 293.784 526.712 295.54 523.47 295.811C521.957 295.811 520.633 295.324 519.498 294.352C518.417 293.325 517.877 292.055 517.877 290.542V286.976V275.79C517.769 274.115 517.12 272.737 515.932 271.656C514.797 270.521 513.5 269.63 512.041 268.981C510.636 268.333 509.15 267.847 507.583 267.522C506.07 267.198 504.53 267.036 502.963 267.036C501.396 267.036 499.829 267.198 498.262 267.522C496.749 267.847 495.263 268.333 493.804 268.981C492.399 269.63 491.102 270.521 489.913 271.656C488.778 272.737 488.157 274.115 488.049 275.79V286.976V290.542C487.779 293.784 486.022 295.54 482.78 295.811C481.267 295.811 479.943 295.324 478.809 294.352C477.728 293.325 477.188 292.055 477.188 290.542V276.682V273.277C477.35 270.359 478.376 267.847 480.268 265.739C482.159 263.632 484.347 261.957 486.833 260.714C489.319 259.417 491.912 258.444 494.614 257.796C497.37 257.147 500.153 256.823 502.963 256.823ZM564.97 296.216C562.16 296.216 559.377 295.892 556.621 295.243C553.919 294.595 551.326 293.649 548.84 292.406C546.354 291.109 544.166 289.407 542.274 287.3C540.383 285.192 539.356 282.68 539.194 279.762V276.357V262.497C539.194 260.984 539.735 259.741 540.815 258.769C541.95 257.742 543.274 257.229 544.787 257.229C548.029 257.499 549.785 259.255 550.056 262.497V266.063V277.249C550.164 278.924 550.785 280.329 551.92 281.464C553.109 282.545 554.406 283.409 555.811 284.058C557.27 284.706 558.756 285.192 560.269 285.517C561.836 285.841 563.403 286.003 564.97 286.003C566.537 286.003 568.077 285.841 569.59 285.517C571.157 285.192 572.643 284.706 574.048 284.058C575.507 283.409 576.804 282.545 577.938 281.464C579.127 280.329 579.776 278.924 579.884 277.249V266.063V262.497C579.884 260.984 580.424 259.741 581.505 258.769C582.64 257.742 583.964 257.229 585.477 257.229C588.719 257.499 590.502 259.255 590.826 262.497V276.357V279.762C590.664 282.68 589.61 285.192 587.665 287.3C585.774 289.407 583.585 291.109 581.1 292.406C578.614 293.649 575.993 294.595 573.237 295.243C570.535 295.892 567.78 296.216 564.97 296.216ZM602.903 268.252C603.93 265.658 605.659 263.335 608.091 261.281C610.576 259.174 613.711 258.093 617.493 258.039H647.97C649.483 258.039 650.753 258.579 651.779 259.66C652.86 260.687 653.4 261.957 653.4 263.47C653.4 264.983 652.86 266.28 651.779 267.36C650.753 268.387 649.483 268.9 647.97 268.9H617.169C616.142 268.9 615.251 269.333 614.494 270.197C613.738 271.008 613.143 271.98 612.711 273.115C612.333 274.25 612.144 275.331 612.144 276.357V290.542C611.819 293.784 610.036 295.54 606.794 295.811C605.281 295.811 603.957 295.324 602.822 294.352C601.742 293.325 601.201 292.055 601.201 290.542V276.438H601.282C601.282 273.629 601.823 270.9 602.903 268.252ZM706.734 290.542V271.008C706.734 269.657 706.032 268.954 704.627 268.9H676.258C675.231 268.954 674.34 269.414 673.583 270.278C672.826 271.089 672.259 272.062 671.881 273.196C671.557 274.277 671.395 275.385 671.395 276.52C671.395 277.6 671.557 278.708 671.881 279.843C672.259 280.924 672.826 281.896 673.583 282.761C674.34 283.571 675.231 283.977 676.258 283.977H697.008C698.521 283.977 699.791 284.517 700.817 285.598C701.898 286.624 702.438 287.894 702.438 289.407C702.438 290.92 701.898 292.19 700.817 293.217C699.791 294.298 698.521 294.838 697.008 294.838H676.582C672.799 294.784 669.665 293.73 667.18 291.677C664.748 289.569 662.992 287.219 661.911 284.625C660.884 281.977 660.371 279.248 660.371 276.438C660.371 273.737 660.911 271.089 661.992 268.495C663.073 265.847 664.829 263.497 667.261 261.443C669.692 259.336 673.286 258.201 678.041 258.039H712.084C713.597 258.039 714.894 258.552 715.975 259.579C717.055 260.552 717.623 261.795 717.677 263.308V290.542C717.677 292.055 717.109 293.325 715.975 294.352C714.894 295.324 713.597 295.811 712.084 295.811C708.842 295.54 707.059 293.784 706.734 290.542ZM773.604 271.008C773.604 269.657 772.902 268.954 771.497 268.9H743.128C742.101 268.954 741.21 269.414 740.453 270.278C739.697 271.089 739.129 272.062 738.751 273.196C738.427 274.277 738.265 275.385 738.265 276.52C738.265 277.6 738.427 278.708 738.751 279.843C739.129 280.924 739.697 281.896 740.453 282.761C741.21 283.571 742.101 283.977 743.128 283.977H763.878C765.391 283.977 766.661 284.517 767.688 285.598C768.768 286.624 769.309 287.894 769.309 289.407C769.309 290.92 768.768 292.19 767.688 293.217C766.661 294.298 765.391 294.838 763.878 294.838H743.452C739.67 294.784 736.535 293.73 734.05 291.677C731.618 289.569 729.862 287.219 728.781 284.625C727.755 281.977 727.241 279.248 727.241 276.438C727.241 273.737 727.782 271.089 728.862 268.495C729.943 265.847 731.699 263.497 734.131 261.443C736.562 259.336 740.156 258.201 744.911 258.039H778.954C780.467 258.039 781.764 258.552 782.845 259.579C783.925 260.552 784.493 261.795 784.547 263.308V288.921C784.547 293.244 783.952 297.324 782.764 301.16C781.683 304.564 779.9 307.428 777.414 309.752C774.982 312.13 771.875 313.426 768.093 313.643H740.048C738.589 313.589 737.346 313.048 736.319 312.021C735.347 311.049 734.833 309.833 734.779 308.374C734.779 306.861 735.266 305.564 736.238 304.483C737.265 303.403 738.535 302.835 740.048 302.781H765.337C767.39 302.673 769.092 301.89 770.443 300.431C771.794 298.972 772.659 297.27 773.037 295.324C773.415 293.379 773.604 290.866 773.604 287.786V271.008ZM572.913 373.542C570.157 369.813 567.401 364.923 564.646 358.871L559.377 347.523C559.107 346.929 558.945 346.281 558.891 345.578C558.783 344.065 559.242 342.768 560.269 341.688C561.295 340.607 562.646 340.066 564.321 340.066C566.159 340.066 567.509 340.445 568.374 341.201C569.293 341.904 570.022 342.822 570.562 343.957L574.372 353.359C575.345 355.575 576.29 357.682 577.209 359.682C578.182 361.627 579.262 363.41 580.451 365.031C581.694 366.652 583.072 367.517 584.585 367.625C586.044 367.517 587.422 366.652 588.719 365.031C589.854 363.41 590.88 361.627 591.799 359.682C592.771 357.682 593.744 355.575 594.717 353.359L598.526 343.957C599.067 342.822 599.769 341.904 600.634 341.201C601.552 340.445 602.93 340.066 604.768 340.066C606.443 340.066 607.794 340.607 608.82 341.688C609.847 342.768 610.306 344.065 610.198 345.578C610.144 346.281 609.982 346.929 609.712 347.523L604.443 358.871C601.688 364.923 598.932 369.813 596.176 373.542C593.528 377.216 589.664 379.081 584.585 379.135C579.451 379.081 575.561 377.216 572.913 373.542ZM664.505 373.542V354.008C664.505 352.657 663.802 351.954 662.397 351.9H634.028C633.002 351.954 632.11 352.414 631.354 353.278C630.597 354.089 630.03 355.062 629.651 356.196C629.327 357.277 629.165 358.385 629.165 359.52C629.165 360.6 629.327 361.708 629.651 362.843C630.03 363.924 630.597 364.896 631.354 365.761C632.11 366.571 633.002 366.977 634.028 366.977H654.778C656.291 366.977 657.561 367.517 658.588 368.598C659.669 369.624 660.209 370.894 660.209 372.407C660.209 373.92 659.669 375.19 658.588 376.217C657.561 377.298 656.291 377.838 654.778 377.838H634.353C630.57 377.784 627.436 376.73 624.95 374.677C622.519 372.569 620.762 370.219 619.682 367.625C618.655 364.977 618.142 362.248 618.142 359.438C618.142 356.737 618.682 354.089 619.763 351.495C620.843 348.847 622.6 346.497 625.031 344.443C627.463 342.336 631.056 341.201 635.812 341.039H669.854C671.368 341.039 672.664 341.552 673.745 342.579C674.826 343.552 675.393 344.795 675.447 346.308V373.542C675.447 375.055 674.88 376.325 673.745 377.352C672.664 378.324 671.368 378.811 669.854 378.811C666.612 378.54 664.829 376.784 664.505 373.542ZM691.496 340.229C692.955 340.283 694.198 340.823 695.225 341.85C696.251 342.822 696.792 344.038 696.846 345.497V373.542C696.521 376.784 694.738 378.54 691.496 378.811C689.983 378.811 688.659 378.324 687.524 377.352C686.444 376.325 685.903 375.055 685.903 373.542V345.497C685.957 343.984 686.525 342.741 687.605 341.769C688.686 340.742 689.983 340.229 691.496 340.229ZM684.688 329.691C684.688 328.178 685.336 326.882 686.633 325.801C687.93 324.72 689.497 324.18 691.334 324.18C693.171 324.18 694.738 324.72 696.035 325.801C697.332 326.882 697.98 328.178 697.98 329.691C697.98 331.258 697.332 332.582 696.035 333.663C694.738 334.744 693.171 335.284 691.334 335.284C689.497 335.284 687.93 334.744 686.633 333.663C685.336 332.582 684.688 331.258 684.688 329.691ZM717.677 333.987V364.869C717.677 366.22 718.379 366.923 719.784 366.977H748.153C749.18 366.923 750.072 366.49 750.828 365.68C751.585 364.815 752.125 363.842 752.449 362.762C752.827 361.627 753.017 360.492 753.017 359.357C753.017 358.277 752.827 357.196 752.449 356.115C752.125 354.98 751.585 354.008 750.828 353.197C750.072 352.333 749.18 351.9 748.153 351.9H727.403C725.89 351.9 724.593 351.387 723.513 350.36C722.486 349.28 721.973 347.983 721.973 346.47C721.973 344.957 722.513 343.687 723.594 342.66C724.62 341.579 725.89 341.039 727.403 341.039H747.829C751.612 341.093 754.719 342.174 757.15 344.281C759.636 346.335 761.392 348.685 762.419 351.333C763.5 353.927 764.04 356.629 764.04 359.438C764.04 362.14 763.5 364.815 762.419 367.463C761.338 370.057 759.582 372.407 757.15 374.515C754.719 376.568 751.125 377.676 746.37 377.838H712.327C710.814 377.838 709.517 377.352 708.437 376.379C707.356 375.352 706.788 374.082 706.734 372.569V333.987C706.734 332.474 707.275 331.231 708.355 330.259C709.49 329.232 710.814 328.719 712.327 328.719C715.569 328.989 717.353 330.745 717.677 333.987ZM778.387 328.719C779.846 328.773 781.089 329.313 782.115 330.34C783.142 331.312 783.682 332.528 783.736 333.987V341.039H808.863C812.646 341.093 815.753 342.174 818.185 344.281C820.67 346.335 822.426 348.658 823.453 351.252C824.534 353.9 825.074 356.629 825.074 359.438H825.155V373.542C825.155 375.055 824.588 376.325 823.453 377.352C822.372 378.324 821.076 378.811 819.562 378.811C816.32 378.54 814.537 376.784 814.213 373.542V359.357C814.213 358.331 813.997 357.25 813.564 356.115C813.186 354.98 812.619 354.008 811.862 353.197C811.106 352.333 810.214 351.9 809.188 351.9H783.736V373.704C783.412 376.946 781.629 378.702 778.387 378.973C776.874 378.973 775.55 378.486 774.415 377.514C773.334 376.487 772.794 375.217 772.794 373.704V333.987C772.848 332.474 773.415 331.231 774.496 330.259C775.577 329.232 776.874 328.719 778.387 328.719ZM880.678 373.542V354.008C880.678 352.657 879.975 351.954 878.57 351.9H850.201C849.174 351.954 848.283 352.414 847.526 353.278C846.77 354.089 846.202 355.062 845.824 356.196C845.5 357.277 845.338 358.385 845.338 359.52C845.338 360.6 845.5 361.708 845.824 362.843C846.202 363.924 846.77 364.896 847.526 365.761C848.283 366.571 849.174 366.977 850.201 366.977H870.951C872.464 366.977 873.734 367.517 874.761 368.598C875.841 369.624 876.382 370.894 876.382 372.407C876.382 373.92 875.841 375.19 874.761 376.217C873.734 377.298 872.464 377.838 870.951 377.838H850.525C846.743 377.784 843.609 376.73 841.123 374.677C838.691 372.569 836.935 370.219 835.854 367.625C834.828 364.977 834.314 362.248 834.314 359.438C834.314 356.737 834.855 354.089 835.936 351.495C837.016 348.847 838.772 346.497 841.204 344.443C843.636 342.336 847.229 341.201 851.984 341.039H886.027C887.54 341.039 888.837 341.552 889.918 342.579C890.999 343.552 891.566 344.795 891.62 346.308V373.542C891.62 375.055 891.053 376.325 889.918 377.352C888.837 378.324 887.54 378.811 886.027 378.811C882.785 378.54 881.002 376.784 880.678 373.542ZM914.883 373.542C912.127 369.813 909.371 364.923 906.615 358.871L901.347 347.523C901.076 346.929 900.914 346.281 900.86 345.578C900.752 344.065 901.212 342.768 902.238 341.688C903.265 340.607 904.616 340.066 906.291 340.066C908.128 340.066 909.479 340.445 910.344 341.201C911.262 341.904 911.992 342.822 912.532 343.957L916.342 353.359C917.314 355.575 918.26 357.682 919.179 359.682C920.151 361.627 921.232 363.41 922.421 365.031C923.664 366.652 925.042 367.517 926.555 367.625C928.014 367.517 929.392 366.652 930.688 365.031C931.823 363.41 932.85 361.627 933.769 359.682C934.741 357.682 935.714 355.575 936.687 353.359L940.496 343.957C941.036 342.822 941.739 341.904 942.604 341.201C943.522 340.445 944.9 340.066 946.737 340.066C948.412 340.066 949.763 340.607 950.79 341.688C951.817 342.768 952.276 344.065 952.168 345.578C952.114 346.281 951.952 346.929 951.682 347.523L946.413 358.871C943.657 364.923 940.901 369.813 938.146 373.542C935.498 377.216 931.634 379.081 926.555 379.135C921.421 379.081 917.531 377.216 914.883 373.542Z" fill="white"/>
<path d="M60.1738 96.4287C60.1738 95.4626 60.5016 94.6517 61.1572 93.9961C61.8473 93.306 62.6755 92.9609 63.6416 92.9609H73.5791V76.2949H63.6416C62.6755 76.2949 61.8646 75.9499 61.209 75.2598C60.5189 74.6042 60.1738 73.7933 60.1738 72.8271C60.1738 71.861 60.5016 71.0501 61.1572 70.3945C61.8473 69.7044 62.6755 69.3594 63.6416 69.3594H90.4521C91.4183 69.3594 92.2464 69.6872 92.9365 70.3428C93.5921 71.0329 93.9199 71.861 93.9199 72.8271C93.9199 73.7933 93.5749 74.6214 92.8848 75.3115C92.2292 75.9671 91.4183 76.2949 90.4521 76.2949H80.5664V92.9609H90.4521C91.4183 92.9609 92.2464 93.2887 92.9365 93.9443C93.5921 94.6344 93.9199 95.4626 93.9199 96.4287C93.9199 97.3949 93.5749 98.223 92.8848 98.9131C92.2292 99.5687 91.4183 99.8965 90.4521 99.8965H63.6416C62.6755 99.8965 61.8646 99.5514 61.209 98.8613C60.5189 98.2057 60.1738 97.3949 60.1738 96.4287ZM103.547 76.6055C103.236 76.778 102.926 76.8643 102.615 76.8643C102.443 76.8643 102.27 76.8298 102.098 76.7607C101.615 76.6227 101.252 76.3122 101.011 75.8291C100.769 75.346 100.717 74.863 100.855 74.3799C100.993 73.8623 101.287 73.4482 101.735 73.1377C103.909 71.5505 105.082 69.5319 105.255 67.082C105.255 66.944 105.203 66.8405 105.1 66.7715C104.996 66.668 104.875 66.6162 104.737 66.6162C103.564 66.6162 102.563 66.2539 101.735 65.5293C100.907 64.7702 100.493 63.7695 100.493 62.5273C100.493 61.1816 100.89 60.112 101.684 59.3184C102.477 58.4902 103.495 58.0762 104.737 58.0762C106.394 58.0762 107.653 58.7145 108.516 59.9912C109.413 61.2334 109.861 62.9932 109.861 65.2705C109.861 70.1357 107.757 73.9141 103.547 76.6055ZM127.407 75.6221C128.615 75.6221 129.788 75.8291 130.927 76.2432C132.1 76.6572 133.221 77.2611 134.291 78.0547C134.464 78.2272 134.653 78.3997 134.86 78.5723C135.033 78.3997 135.223 78.2272 135.43 78.0547C136.499 77.2611 137.604 76.6572 138.742 76.2432C139.915 75.8291 141.089 75.6221 142.262 75.6221C143.469 75.6221 144.643 75.8291 145.781 76.2432C146.954 76.6572 148.059 77.2783 149.094 78.1064C150.163 78.9001 151.095 79.9697 151.889 81.3154C152.717 82.6611 153.131 84.2656 153.131 86.1289V97.1533C152.924 99.2236 151.785 100.345 149.715 100.518C148.749 100.518 147.903 100.207 147.179 99.5859C146.489 98.9303 146.144 98.1195 146.144 97.1533V86.543C146.144 85.7148 145.988 85.0247 145.678 84.4727C145.367 83.8861 145.022 83.4375 144.643 83.127C144.263 82.7819 143.866 82.5404 143.452 82.4023C143.038 82.2298 142.624 82.1436 142.21 82.1436C141.796 82.1436 141.382 82.2298 140.968 82.4023C140.588 82.5404 140.209 82.7819 139.829 83.127C139.45 83.4375 139.104 83.8861 138.794 84.4727C138.483 85.0247 138.311 85.7148 138.276 86.543V97.1533C138.069 99.2236 136.931 100.345 134.86 100.518C133.894 100.518 133.049 100.207 132.324 99.5859C131.634 98.9303 131.289 98.1195 131.289 97.1533V86.543C131.289 85.7148 131.134 85.0247 130.823 84.4727C130.513 83.8861 130.168 83.4375 129.788 83.127C129.409 82.7819 129.012 82.5404 128.598 82.4023C128.184 82.2298 127.77 82.1436 127.355 82.1436C126.941 82.1436 126.527 82.2298 126.113 82.4023C125.734 82.5404 125.354 82.7819 124.975 83.127C124.595 83.4375 124.25 83.8861 123.939 84.4727C123.629 85.0247 123.456 85.7148 123.422 86.543V97.1533C123.249 99.2236 122.128 100.345 120.058 100.518C119.091 100.518 118.246 100.207 117.521 99.5859C116.831 98.9303 116.486 98.1195 116.486 97.1533V86.1289C116.555 84.2656 116.987 82.6611 117.78 81.3154C118.574 79.9697 119.506 78.9001 120.575 78.1064C121.645 77.2783 122.749 76.6572 123.888 76.2432C125.061 75.8291 126.234 75.6221 127.407 75.6221Z" fill="#888888"/>
<line x1="786" y1="470" x2="1186" y2="470" stroke="#00EBEB" stroke-width="10"/>
<path d="M101 302.28L124.541 281L101 315.72L143.599 281L101 332.52L163.777 281L101 352.68L188.439 281L101 375.08L215.344 281L101 395.24L241.127 281L101 419.88L277 281L101 449L277 315.72L135.752 449L277 352.68L178.35 449L277 395.24L222.07 449L277 419.88L261.306 449" stroke="#858585" stroke-width="2"/>
<path d="M1029 135.923L1050.41 155L1040.89 119.231L1068.25 155L1050.41 101.346L1088.47 155L1061.11 84.6538L1107.5 155L1071.82 67.9615L1125.34 155L1081.33 50.0769L1143.18 155L1092.04 36.9615L1163.4 155L1097.98 20.2692L1186 155L1112.26 0" stroke="#858585" stroke-width="2"/>
<g filter="url(#filter0_di_553_20)">
<path fill-rule="evenodd" clip-rule="evenodd" d="M250.686 375.784L338.551 194.744L348.474 190.553L333.464 223.294L426.357 398.379L422.896 408.334L404.866 373.85L292.316 303.642L255.728 377.486L466.546 435.541L430.071 346.816L473.391 437.426L490 442L344.898 150.9L282.954 243.363L341.009 143.098L329.496 120L244.672 288.496L168 441.846L212.835 407.769L229.139 351.76L218.949 404.136L250.686 375.784Z" fill="#00EBEB"/>
</g>
</g>
<defs>
<filter id="filter0_di_553_20" x="168" y="120" width="331" height="331" filterUnits="userSpaceOnUse" color-interpolation-filters="sRGB">
<feFlood flood-opacity="0" result="BackgroundImageFix"/>
<feColorMatrix in="SourceAlpha" type="matrix" values="0 0 0 0 0 0 0 0 0 0 0 0 0 0 0 0 0 0 127 0" result="hardAlpha"/>
<feOffset dx="6" dy="6"/>
<feGaussianBlur stdDeviation="1.5"/>
<feComposite in2="hardAlpha" operator="out"/>
<feColorMatrix type="matrix" values="0 0 0 0 0 0 0 0 0 0 0 0 0 0 0 0 0 0 0.5 0"/>
<feBlend mode="normal" in2="BackgroundImageFix" result="effect1_dropShadow_553_20"/>
<feBlend mode="normal" in="SourceGraphic" in2="effect1_dropShadow_553_20" result="shape"/>
<feColorMatrix in="SourceAlpha" type="matrix" values="0 0 0 0 0 0 0 0 0 0 0 0 0 0 0 0 0 0 127 0" result="hardAlpha"/>
<feOffset dy="7"/>
<feComposite in2="hardAlpha" operator="arithmetic" k2="-1" k3="1"/>
<feColorMatrix type="matrix" values="0 0 0 0 0 0 0 0 0 0 0 0 0 0 0 0 0 0 0.6 0"/>
<feBlend mode="normal" in2="shape" result="effect2_innerShadow_553_20"/>
</filter>
<clipPath id="clip0_553_20">
<rect width="1186" height="1160" fill="white"/>
</clipPath>
</defs>
</svg>
