<svg width="1186" height="1160" viewBox="0 0 1186 1160" fill="none" xmlns="http://www.w3.org/2000/svg">
<style >
.sec_name{
    stroke:red
}
.lined_square{
    transform-origin: center;
    animation:levitate 1s ease-in-out infinite alternate,tilt 2s linear infinite;
}
@keyframes levitate{
    0%{
        transform:translateY(0px);
    }
    100%{
        transform:translateY(20px);
    }
}
@keyframes tilt{
    0%{
        transform:rotateZ(0deg);
    }
    25%{
        transform:rotateZ(2deg)
    }
    50%{
        transform:rotateZ(0deg);
    }
    75%{
        transform:rotateZ(-2deg);
    }
    100%{
        transform:rotateZ(0deg);
    }
}
</style>
<g clip-path="url(#clip0_553_20)">
<g filter="url(#filter0_d_553_20)">
<path class="sec_name" d="M471.963 261.823C474.773 261.823 477.529 262.147 480.23 262.796C482.986 263.444 485.607 264.417 488.093 265.714C490.578 266.957 492.767 268.632 494.658 270.739C496.604 272.847 497.657 275.359 497.819 278.277V281.682V295.542C497.495 298.784 495.712 300.54 492.47 300.811C490.957 300.811 489.633 300.324 488.498 299.352C487.417 298.325 486.877 297.055 486.877 295.542V291.976V280.79C486.769 279.115 486.12 277.737 484.932 276.656C483.797 275.521 482.5 274.63 481.041 273.981C479.636 273.333 478.15 272.847 476.583 272.522C475.07 272.198 473.53 272.036 471.963 272.036C470.396 272.036 468.829 272.198 467.262 272.522C465.749 272.847 464.263 273.333 462.804 273.981C461.399 274.63 460.102 275.521 458.913 276.656C457.778 277.737 457.157 279.115 457.049 280.79V291.976V295.542C456.779 298.784 455.022 300.54 451.78 300.811C450.267 300.811 448.943 300.324 447.809 299.352C446.728 298.325 446.188 297.055 446.188 295.542V281.682V278.277C446.35 275.359 447.376 272.847 449.268 270.739C451.159 268.632 453.347 266.957 455.833 265.714C458.319 264.417 460.912 263.444 463.614 262.796C466.37 262.147 469.153 261.823 471.963 261.823ZM533.97 301.216C531.16 301.216 528.377 300.892 525.621 300.243C522.919 299.595 520.326 298.649 517.84 297.406C515.354 296.109 513.166 294.407 511.274 292.3C509.383 290.192 508.356 287.68 508.194 284.762V281.357V267.497C508.194 265.984 508.735 264.741 509.815 263.769C510.95 262.742 512.274 262.229 513.787 262.229C517.029 262.499 518.785 264.255 519.056 267.497V271.063V282.249C519.164 283.924 519.785 285.329 520.92 286.464C522.109 287.545 523.406 288.409 524.811 289.058C526.27 289.706 527.756 290.192 529.269 290.517C530.836 290.841 532.403 291.003 533.97 291.003C535.537 291.003 537.077 290.841 538.59 290.517C540.157 290.192 541.643 289.706 543.048 289.058C544.507 288.409 545.804 287.545 546.938 286.464C548.127 285.329 548.776 283.924 548.884 282.249V271.063V267.497C548.884 265.984 549.424 264.741 550.505 263.769C551.64 262.742 552.964 262.229 554.477 262.229C557.719 262.499 559.502 264.255 559.826 267.497V281.357V284.762C559.664 287.68 558.61 290.192 556.665 292.3C554.774 294.407 552.585 296.109 550.1 297.406C547.614 298.649 544.993 299.595 542.237 300.243C539.535 300.892 536.78 301.216 533.97 301.216ZM571.903 273.252C572.93 270.658 574.659 268.335 577.091 266.281C579.576 264.174 582.711 263.093 586.493 263.039H616.97C618.483 263.039 619.753 263.579 620.779 264.66C621.86 265.687 622.4 266.957 622.4 268.47C622.4 269.983 621.86 271.28 620.779 272.36C619.753 273.387 618.483 273.9 616.97 273.9H586.169C585.142 273.9 584.251 274.333 583.494 275.197C582.738 276.008 582.143 276.98 581.711 278.115C581.333 279.25 581.144 280.331 581.144 281.357V295.542C580.819 298.784 579.036 300.54 575.794 300.811C574.281 300.811 572.957 300.324 571.822 299.352C570.742 298.325 570.201 297.055 570.201 295.542V281.438H570.282C570.282 278.629 570.823 275.9 571.903 273.252ZM675.734 295.542V276.008C675.734 274.657 675.032 273.954 673.627 273.9H645.258C644.231 273.954 643.34 274.414 642.583 275.278C641.826 276.089 641.259 277.062 640.881 278.196C640.557 279.277 640.395 280.385 640.395 281.52C640.395 282.6 640.557 283.708 640.881 284.843C641.259 285.924 641.826 286.896 642.583 287.761C643.34 288.571 644.231 288.977 645.258 288.977H666.008C667.521 288.977 668.791 289.517 669.817 290.598C670.898 291.624 671.438 292.894 671.438 294.407C671.438 295.92 670.898 297.19 669.817 298.217C668.791 299.298 667.521 299.838 666.008 299.838H645.582C641.799 299.784 638.665 298.73 636.18 296.677C633.748 294.569 631.992 292.219 630.911 289.625C629.884 286.977 629.371 284.248 629.371 281.438C629.371 278.737 629.911 276.089 630.992 273.495C632.073 270.847 633.829 268.497 636.261 266.443C638.692 264.336 642.286 263.201 647.041 263.039H681.084C682.597 263.039 683.894 263.552 684.975 264.579C686.055 265.552 686.623 266.795 686.677 268.308V295.542C686.677 297.055 686.109 298.325 684.975 299.352C683.894 300.324 682.597 300.811 681.084 300.811C677.842 300.54 676.059 298.784 675.734 295.542ZM742.604 276.008C742.604 274.657 741.902 273.954 740.497 273.9H712.128C711.101 273.954 710.21 274.414 709.453 275.278C708.697 276.089 708.129 277.062 707.751 278.196C707.427 279.277 707.265 280.385 707.265 281.52C707.265 282.6 707.427 283.708 707.751 284.843C708.129 285.924 708.697 286.896 709.453 287.761C710.21 288.571 711.101 288.977 712.128 288.977H732.878C734.391 288.977 735.661 289.517 736.688 290.598C737.768 291.624 738.309 292.894 738.309 294.407C738.309 295.92 737.768 297.19 736.688 298.217C735.661 299.298 734.391 299.838 732.878 299.838H712.452C708.67 299.784 705.535 298.73 703.05 296.677C700.618 294.569 698.862 292.219 697.781 289.625C696.755 286.977 696.241 284.248 696.241 281.438C696.241 278.737 696.782 276.089 697.862 273.495C698.943 270.847 700.699 268.497 703.131 266.443C705.562 264.336 709.156 263.201 713.911 263.039H747.954C749.467 263.039 750.764 263.552 751.845 264.579C752.925 265.552 753.493 266.795 753.547 268.308V293.921C753.547 298.244 752.952 302.324 751.764 306.16C750.683 309.564 748.9 312.428 746.414 314.752C743.982 317.13 740.875 318.426 737.093 318.643H709.048C707.589 318.589 706.346 318.048 705.319 317.021C704.347 316.049 703.833 314.833 703.779 313.374C703.779 311.861 704.266 310.564 705.238 309.483C706.265 308.403 707.535 307.835 709.048 307.781H734.337C736.39 307.673 738.092 306.89 739.443 305.431C740.794 303.972 741.659 302.27 742.037 300.324C742.415 298.379 742.604 295.866 742.604 292.786V276.008ZM541.913 378.542C539.157 374.813 536.401 369.923 533.646 363.871L528.377 352.523C528.107 351.929 527.945 351.281 527.891 350.578C527.783 349.065 528.242 347.768 529.269 346.688C530.295 345.607 531.646 345.066 533.321 345.066C535.159 345.066 536.509 345.445 537.374 346.201C538.293 346.904 539.022 347.822 539.562 348.957L543.372 358.359C544.345 360.575 545.29 362.682 546.209 364.682C547.182 366.627 548.262 368.41 549.451 370.031C550.694 371.652 552.072 372.517 553.585 372.625C555.044 372.517 556.422 371.652 557.719 370.031C558.854 368.41 559.88 366.627 560.799 364.682C561.771 362.682 562.744 360.575 563.717 358.359L567.526 348.957C568.067 347.822 568.769 346.904 569.634 346.201C570.552 345.445 571.93 345.066 573.768 345.066C575.443 345.066 576.794 345.607 577.82 346.688C578.847 347.768 579.306 349.065 579.198 350.578C579.144 351.281 578.982 351.929 578.712 352.523L573.443 363.871C570.688 369.923 567.932 374.813 565.176 378.542C562.528 382.216 558.664 384.081 553.585 384.135C548.451 384.081 544.561 382.216 541.913 378.542ZM633.505 378.542V359.008C633.505 357.657 632.802 356.954 631.397 356.9H603.028C602.002 356.954 601.11 357.414 600.354 358.278C599.597 359.089 599.03 360.062 598.651 361.196C598.327 362.277 598.165 363.385 598.165 364.52C598.165 365.6 598.327 366.708 598.651 367.843C599.03 368.924 599.597 369.896 600.354 370.761C601.11 371.571 602.002 371.977 603.028 371.977H623.778C625.291 371.977 626.561 372.517 627.588 373.598C628.669 374.624 629.209 375.894 629.209 377.407C629.209 378.92 628.669 380.19 627.588 381.217C626.561 382.298 625.291 382.838 623.778 382.838H603.353C599.57 382.784 596.436 381.73 593.95 379.677C591.519 377.569 589.762 375.219 588.682 372.625C587.655 369.977 587.142 367.248 587.142 364.438C587.142 361.737 587.682 359.089 588.763 356.495C589.843 353.847 591.6 351.497 594.031 349.443C596.463 347.336 600.056 346.201 604.812 346.039H638.854C640.368 346.039 641.664 346.552 642.745 347.579C643.826 348.552 644.393 349.795 644.447 351.308V378.542C644.447 380.055 643.88 381.325 642.745 382.352C641.664 383.324 640.368 383.811 638.854 383.811C635.612 383.54 633.829 381.784 633.505 378.542ZM660.496 345.229C661.955 345.283 663.198 345.823 664.225 346.85C665.251 347.822 665.792 349.038 665.846 350.497V378.542C665.521 381.784 663.738 383.54 660.496 383.811C658.983 383.811 657.659 383.324 656.524 382.352C655.444 381.325 654.903 380.055 654.903 378.542V350.497C654.957 348.984 655.525 347.741 656.605 346.769C657.686 345.742 658.983 345.229 660.496 345.229ZM653.688 334.691C653.688 333.178 654.336 331.882 655.633 330.801C656.93 329.72 658.497 329.18 660.334 329.18C662.171 329.18 663.738 329.72 665.035 330.801C666.332 331.882 666.98 333.178 666.98 334.691C666.98 336.258 666.332 337.582 665.035 338.663C663.738 339.744 662.171 340.284 660.334 340.284C658.497 340.284 656.93 339.744 655.633 338.663C654.336 337.582 653.688 336.258 653.688 334.691ZM686.677 338.987V369.869C686.677 371.22 687.379 371.923 688.784 371.977H717.153C718.18 371.923 719.072 371.49 719.828 370.68C720.585 369.815 721.125 368.842 721.449 367.762C721.827 366.627 722.017 365.492 722.017 364.357C722.017 363.277 721.827 362.196 721.449 361.115C721.125 359.98 720.585 359.008 719.828 358.197C719.072 357.333 718.18 356.9 717.153 356.9H696.403C694.89 356.9 693.593 356.387 692.513 355.36C691.486 354.28 690.973 352.983 690.973 351.47C690.973 349.957 691.513 348.687 692.594 347.66C693.62 346.579 694.89 346.039 696.403 346.039H716.829C720.612 346.093 723.719 347.174 726.15 349.281C728.636 351.335 730.392 353.685 731.419 356.333C732.5 358.927 733.04 361.629 733.04 364.438C733.04 367.14 732.5 369.815 731.419 372.463C730.338 375.057 728.582 377.407 726.15 379.515C723.719 381.568 720.125 382.676 715.37 382.838H681.327C679.814 382.838 678.517 382.352 677.437 381.379C676.356 380.352 675.788 379.082 675.734 377.569V338.987C675.734 337.474 676.275 336.231 677.355 335.259C678.49 334.232 679.814 333.719 681.327 333.719C684.569 333.989 686.353 335.745 686.677 338.987ZM747.387 333.719C748.846 333.773 750.089 334.313 751.115 335.34C752.142 336.312 752.682 337.528 752.736 338.987V346.039H777.863C781.646 346.093 784.753 347.174 787.185 349.281C789.67 351.335 791.426 353.658 792.453 356.252C793.534 358.9 794.074 361.629 794.074 364.438H794.155V378.542C794.155 380.055 793.588 381.325 792.453 382.352C791.372 383.324 790.076 383.811 788.562 383.811C785.32 383.54 783.537 381.784 783.213 378.542V364.357C783.213 363.331 782.997 362.25 782.564 361.115C782.186 359.98 781.619 359.008 780.862 358.197C780.106 357.333 779.214 356.9 778.188 356.9H752.736V378.704C752.412 381.946 750.629 383.702 747.387 383.973C745.874 383.973 744.55 383.486 743.415 382.514C742.334 381.487 741.794 380.217 741.794 378.704V338.987C741.848 337.474 742.415 336.231 743.496 335.259C744.577 334.232 745.874 333.719 747.387 333.719ZM849.678 378.542V359.008C849.678 357.657 848.975 356.954 847.57 356.9H819.201C818.174 356.954 817.283 357.414 816.526 358.278C815.77 359.089 815.202 360.062 814.824 361.196C814.5 362.277 814.338 363.385 814.338 364.52C814.338 365.6 814.5 366.708 814.824 367.843C815.202 368.924 815.77 369.896 816.526 370.761C817.283 371.571 818.174 371.977 819.201 371.977H839.951C841.464 371.977 842.734 372.517 843.761 373.598C844.841 374.624 845.382 375.894 845.382 377.407C845.382 378.92 844.841 380.19 843.761 381.217C842.734 382.298 841.464 382.838 839.951 382.838H819.525C815.743 382.784 812.609 381.73 810.123 379.677C807.691 377.569 805.935 375.219 804.854 372.625C803.828 369.977 803.314 367.248 803.314 364.438C803.314 361.737 803.855 359.089 804.936 356.495C806.016 353.847 807.772 351.497 810.204 349.443C812.636 347.336 816.229 346.201 820.984 346.039H855.027C856.54 346.039 857.837 346.552 858.918 347.579C859.999 348.552 860.566 349.795 860.62 351.308V378.542C860.62 380.055 860.053 381.325 858.918 382.352C857.837 383.324 856.54 383.811 855.027 383.811C851.785 383.54 850.002 381.784 849.678 378.542ZM883.883 378.542C881.127 374.813 878.371 369.923 875.615 363.871L870.347 352.523C870.076 351.929 869.914 351.281 869.86 350.578C869.752 349.065 870.212 347.768 871.238 346.688C872.265 345.607 873.616 345.066 875.291 345.066C877.128 345.066 878.479 345.445 879.344 346.201C880.262 346.904 880.992 347.822 881.532 348.957L885.342 358.359C886.314 360.575 887.26 362.682 888.179 364.682C889.151 366.627 890.232 368.41 891.421 370.031C892.664 371.652 894.042 372.517 895.555 372.625C897.014 372.517 898.392 371.652 899.688 370.031C900.823 368.41 901.85 366.627 902.769 364.682C903.741 362.682 904.714 360.575 905.687 358.359L909.496 348.957C910.036 347.822 910.739 346.904 911.604 346.201C912.522 345.445 913.9 345.066 915.737 345.066C917.412 345.066 918.763 345.607 919.79 346.688C920.817 347.768 921.276 349.065 921.168 350.578C921.114 351.281 920.952 351.929 920.682 352.523L915.413 363.871C912.657 369.923 909.901 374.813 907.146 378.542C904.498 382.216 900.634 384.081 895.555 384.135C890.421 384.081 886.531 382.216 883.883 378.542Z" fill="#A5A5A5"/>
</g>
<path d="M60.1738 96.4287C60.1738 95.4626 60.5016 94.6517 61.1572 93.9961C61.8473 93.306 62.6755 92.9609 63.6416 92.9609H73.5791V76.2949H63.6416C62.6755 76.2949 61.8646 75.9499 61.209 75.2598C60.5189 74.6042 60.1738 73.7933 60.1738 72.8271C60.1738 71.861 60.5016 71.0501 61.1572 70.3945C61.8473 69.7044 62.6755 69.3594 63.6416 69.3594H90.4521C91.4183 69.3594 92.2464 69.6872 92.9365 70.3428C93.5921 71.0329 93.9199 71.861 93.9199 72.8271C93.9199 73.7933 93.5749 74.6214 92.8848 75.3115C92.2292 75.9671 91.4183 76.2949 90.4521 76.2949H80.5664V92.9609H90.4521C91.4183 92.9609 92.2464 93.2887 92.9365 93.9443C93.5921 94.6344 93.9199 95.4626 93.9199 96.4287C93.9199 97.3949 93.5749 98.223 92.8848 98.9131C92.2292 99.5687 91.4183 99.8965 90.4521 99.8965H63.6416C62.6755 99.8965 61.8646 99.5514 61.209 98.8613C60.5189 98.2057 60.1738 97.3949 60.1738 96.4287ZM103.547 76.6055C103.236 76.778 102.926 76.8643 102.615 76.8643C102.443 76.8643 102.27 76.8298 102.098 76.7607C101.615 76.6227 101.252 76.3122 101.011 75.8291C100.769 75.346 100.717 74.863 100.855 74.3799C100.993 73.8623 101.287 73.4482 101.735 73.1377C103.909 71.5505 105.082 69.5319 105.255 67.082C105.255 66.944 105.203 66.8405 105.1 66.7715C104.996 66.668 104.875 66.6162 104.737 66.6162C103.564 66.6162 102.563 66.2539 101.735 65.5293C100.907 64.7702 100.493 63.7695 100.493 62.5273C100.493 61.1816 100.89 60.112 101.684 59.3184C102.477 58.4902 103.495 58.0762 104.737 58.0762C106.394 58.0762 107.653 58.7145 108.516 59.9912C109.413 61.2334 109.861 62.9932 109.861 65.2705C109.861 70.1357 107.757 73.9141 103.547 76.6055ZM127.407 75.6221C128.615 75.6221 129.788 75.8291 130.927 76.2432C132.1 76.6572 133.221 77.2611 134.291 78.0547C134.464 78.2272 134.653 78.3997 134.86 78.5723C135.033 78.3997 135.223 78.2272 135.43 78.0547C136.499 77.2611 137.604 76.6572 138.742 76.2432C139.915 75.8291 141.089 75.6221 142.262 75.6221C143.469 75.6221 144.643 75.8291 145.781 76.2432C146.954 76.6572 148.059 77.2783 149.094 78.1064C150.163 78.9001 151.095 79.9697 151.889 81.3154C152.717 82.6611 153.131 84.2656 153.131 86.1289V97.1533C152.924 99.2236 151.785 100.345 149.715 100.518C148.749 100.518 147.903 100.207 147.179 99.5859C146.489 98.9303 146.144 98.1195 146.144 97.1533V86.543C146.144 85.7148 145.988 85.0247 145.678 84.4727C145.367 83.8861 145.022 83.4375 144.643 83.127C144.263 82.7819 143.866 82.5404 143.452 82.4023C143.038 82.2298 142.624 82.1436 142.21 82.1436C141.796 82.1436 141.382 82.2298 140.968 82.4023C140.588 82.5404 140.209 82.7819 139.829 83.127C139.45 83.4375 139.104 83.8861 138.794 84.4727C138.483 85.0247 138.311 85.7148 138.276 86.543V97.1533C138.069 99.2236 136.931 100.345 134.86 100.518C133.894 100.518 133.049 100.207 132.324 99.5859C131.634 98.9303 131.289 98.1195 131.289 97.1533V86.543C131.289 85.7148 131.134 85.0247 130.823 84.4727C130.513 83.8861 130.168 83.4375 129.788 83.127C129.409 82.7819 129.012 82.5404 128.598 82.4023C128.184 82.2298 127.77 82.1436 127.355 82.1436C126.941 82.1436 126.527 82.2298 126.113 82.4023C125.734 82.5404 125.354 82.7819 124.975 83.127C124.595 83.4375 124.25 83.8861 123.939 84.4727C123.629 85.0247 123.456 85.7148 123.422 86.543V97.1533C123.249 99.2236 122.128 100.345 120.058 100.518C119.091 100.518 118.246 100.207 117.521 99.5859C116.831 98.9303 116.486 98.1195 116.486 97.1533V86.1289C116.555 84.2656 116.987 82.6611 117.78 81.3154C118.574 79.9697 119.506 78.9001 120.575 78.1064C121.645 77.2783 122.749 76.6572 123.888 76.2432C125.061 75.8291 126.234 75.6221 127.407 75.6221Z" fill="#888888"/>
<g filter="url(#filter1_d_553_20)">
<line x1="786" y1="496" x2="1186" y2="496" stroke="#00EBEB" stroke-width="10"/>
</g>
<path class="lined_square" d="M101 302.28L124.541 281L101 315.72L143.599 281L101 332.52L163.777 281L101 352.68L188.439 281L101 375.08L215.344 281L101 395.24L241.127 281L101 419.88L277 281L101 449L277 315.72L135.752 449L277 352.68L178.35 449L277 395.24L222.07 449L277 419.88L261.306 449" stroke="#858585" stroke-width="2"/>
<path d="M1029 135.923L1050.41 155L1040.89 119.231L1068.25 155L1050.41 101.346L1088.47 155L1061.11 84.6538L1107.5 155L1071.82 67.9615L1125.34 155L1081.33 50.0769L1143.18 155L1092.04 36.9615L1163.4 155L1097.98 20.2692L1186 155L1112.26 0" stroke="#858585" stroke-width="2"/>
<g filter="url(#filter2_di_553_20)">
<path fill-rule="evenodd" clip-rule="evenodd" d="M250.306 339.3L322.89 189.745L331.087 186.283L318.688 213.33L395.425 357.966L392.566 366.189L377.672 337.702L284.696 279.704L254.471 340.706L428.625 388.665L398.493 315.37L434.279 390.222L448 394L328.133 153.526L276.962 229.909L324.921 147.081L315.409 128L245.338 267.192L182 393.873L219.038 365.722L232.506 319.454L224.089 362.721L250.306 339.3Z" fill="#00EBEB"/>
</g>
</g>
<defs>
<filter id="filter0_d_553_20" x="434.188" y="261.823" width="487.143" height="130.312" filterUnits="userSpaceOnUse" color-interpolation-filters="sRGB">
<feFlood flood-opacity="0" result="BackgroundImageFix"/>
<feColorMatrix in="SourceAlpha" type="matrix" values="0 0 0 0 0 0 0 0 0 0 0 0 0 0 0 0 0 0 127 0" result="hardAlpha"/>
<feOffset dx="-8" dy="4"/>
<feGaussianBlur stdDeviation="2"/>
<feComposite in2="hardAlpha" operator="out"/>
<feColorMatrix type="matrix" values="0 0 0 0 0 0 0 0 0 0 0 0 0 0 0 0 0 0 1 0"/>
<feBlend mode="normal" in2="BackgroundImageFix" result="effect1_dropShadow_553_20"/>
<feBlend mode="normal" in="SourceGraphic" in2="effect1_dropShadow_553_20" result="shape"/>
</filter>
<filter id="filter1_d_553_20" x="766" y="479" width="430" height="40" filterUnits="userSpaceOnUse" color-interpolation-filters="sRGB">
<feFlood flood-opacity="0" result="BackgroundImageFix"/>
<feColorMatrix in="SourceAlpha" type="matrix" values="0 0 0 0 0 0 0 0 0 0 0 0 0 0 0 0 0 0 127 0" result="hardAlpha"/>
<feOffset dx="-5" dy="3"/>
<feGaussianBlur stdDeviation="7.5"/>
<feComposite in2="hardAlpha" operator="out"/>
<feColorMatrix type="matrix" values="0 0 0 0 0 0 0 0 0 0 0 0 0 0 0 0 0 0 0.83 0"/>
<feBlend mode="normal" in2="BackgroundImageFix" result="effect1_dropShadow_553_20"/>
<feBlend mode="normal" in="SourceGraphic" in2="effect1_dropShadow_553_20" result="shape"/>
</filter>
<filter id="filter2_di_553_20" x="182" y="128" width="275" height="275" filterUnits="userSpaceOnUse" color-interpolation-filters="sRGB">
<feFlood flood-opacity="0" result="BackgroundImageFix"/>
<feColorMatrix in="SourceAlpha" type="matrix" values="0 0 0 0 0 0 0 0 0 0 0 0 0 0 0 0 0 0 127 0" result="hardAlpha"/>
<feOffset dx="6" dy="6"/>
<feGaussianBlur stdDeviation="1.5"/>
<feComposite in2="hardAlpha" operator="out"/>
<feColorMatrix type="matrix" values="0 0 0 0 0 0 0 0 0 0 0 0 0 0 0 0 0 0 0.5 0"/>
<feBlend mode="normal" in2="BackgroundImageFix" result="effect1_dropShadow_553_20"/>
<feBlend mode="normal" in="SourceGraphic" in2="effect1_dropShadow_553_20" result="shape"/>
<feColorMatrix in="SourceAlpha" type="matrix" values="0 0 0 0 0 0 0 0 0 0 0 0 0 0 0 0 0 0 127 0" result="hardAlpha"/>
<feOffset dy="7"/>
<feComposite in2="hardAlpha" operator="arithmetic" k2="-1" k3="1"/>
<feColorMatrix type="matrix" values="0 0 0 0 0 0 0 0 0 0 0 0 0 0 0 0 0 0 0.6 0"/>
<feBlend mode="normal" in2="shape" result="effect2_innerShadow_553_20"/>
</filter>
<clipPath id="clip0_553_20">
<rect width="1186" height="1160" fill="white"/>
</clipPath>
</defs>
</svg>
