<svg width="626" height="1160" viewBox="0 0 626 1160" fill="none" xmlns="http://www.w3.org/2000/svg">
<g clip-path="url(#clip0_553_20)">
<rect width="626" height="1160" fill="#101010"/>
<path d="M238.248 130.103C240.449 130.103 242.607 130.356 244.723 130.864C246.881 131.372 248.933 132.134 250.88 133.149C252.826 134.123 254.54 135.435 256.021 137.085C257.545 138.735 258.37 140.703 258.497 142.988V145.654V156.509C258.243 159.048 256.847 160.423 254.308 160.635C253.123 160.635 252.086 160.254 251.197 159.492C250.351 158.688 249.928 157.694 249.928 156.509V153.716V144.956C249.843 143.644 249.335 142.565 248.404 141.719C247.516 140.83 246.5 140.132 245.357 139.624C244.257 139.116 243.093 138.735 241.866 138.481C240.681 138.228 239.475 138.101 238.248 138.101C237.021 138.101 235.794 138.228 234.566 138.481C233.382 138.735 232.218 139.116 231.075 139.624C229.975 140.132 228.959 140.83 228.028 141.719C227.14 142.565 226.653 143.644 226.568 144.956V153.716V156.509C226.357 159.048 224.981 160.423 222.442 160.635C221.257 160.635 220.221 160.254 219.332 159.492C218.486 158.688 218.062 157.694 218.062 156.509V145.654V142.988C218.189 140.703 218.993 138.735 220.475 137.085C221.956 135.435 223.67 134.123 225.616 133.149C227.563 132.134 229.594 131.372 231.71 130.864C233.868 130.356 236.048 130.103 238.248 130.103ZM286.808 160.952C284.607 160.952 282.428 160.698 280.27 160.19C278.154 159.683 276.122 158.942 274.176 157.969C272.229 156.953 270.515 155.62 269.034 153.97C267.553 152.319 266.749 150.352 266.622 148.066V145.4V134.546C266.622 133.361 267.045 132.388 267.892 131.626C268.78 130.822 269.817 130.42 271.002 130.42C273.541 130.632 274.916 132.007 275.128 134.546V137.339V146.099C275.213 147.41 275.699 148.511 276.588 149.399C277.519 150.246 278.535 150.923 279.635 151.431C280.777 151.938 281.941 152.319 283.126 152.573C284.353 152.827 285.58 152.954 286.808 152.954C288.035 152.954 289.241 152.827 290.426 152.573C291.653 152.319 292.817 151.938 293.917 151.431C295.06 150.923 296.075 150.246 296.964 149.399C297.895 148.511 298.403 147.41 298.487 146.099V137.339V134.546C298.487 133.361 298.91 132.388 299.757 131.626C300.646 130.822 301.682 130.42 302.867 130.42C305.406 130.632 306.803 132.007 307.057 134.546V145.4V148.066C306.93 150.352 306.104 152.319 304.581 153.97C303.1 155.62 301.386 156.953 299.439 157.969C297.493 158.942 295.44 159.683 293.282 160.19C291.166 160.698 289.008 160.952 286.808 160.952ZM316.515 139.053C317.319 137.021 318.673 135.202 320.577 133.594C322.524 131.943 324.978 131.097 327.94 131.055H351.808C352.993 131.055 353.987 131.478 354.791 132.324C355.637 133.128 356.061 134.123 356.061 135.308C356.061 136.493 355.637 137.508 354.791 138.354C353.987 139.159 352.993 139.561 351.808 139.561H327.687C326.882 139.561 326.184 139.899 325.592 140.576C324.999 141.211 324.534 141.973 324.195 142.861C323.899 143.75 323.751 144.596 323.751 145.4V156.509C323.497 159.048 322.101 160.423 319.562 160.635C318.377 160.635 317.34 160.254 316.451 159.492C315.605 158.688 315.182 157.694 315.182 156.509V145.464H315.245C315.245 143.263 315.668 141.126 316.515 139.053ZM397.828 156.509V141.211C397.828 140.153 397.278 139.603 396.178 139.561H373.961C373.157 139.603 372.459 139.963 371.866 140.64C371.274 141.274 370.829 142.036 370.533 142.925C370.279 143.771 370.152 144.639 370.152 145.527C370.152 146.374 370.279 147.241 370.533 148.13C370.829 148.976 371.274 149.738 371.866 150.415C372.459 151.05 373.157 151.367 373.961 151.367H390.211C391.396 151.367 392.39 151.79 393.194 152.637C394.041 153.441 394.464 154.435 394.464 155.62C394.464 156.805 394.041 157.799 393.194 158.604C392.39 159.45 391.396 159.873 390.211 159.873H374.215C371.253 159.831 368.798 159.006 366.852 157.397C364.947 155.747 363.572 153.906 362.726 151.875C361.922 149.801 361.52 147.664 361.52 145.464C361.52 143.348 361.943 141.274 362.789 139.243C363.635 137.17 365.011 135.329 366.915 133.721C368.819 132.07 371.633 131.182 375.357 131.055H402.018C403.202 131.055 404.218 131.457 405.064 132.261C405.911 133.022 406.355 133.996 406.397 135.181V156.509C406.397 157.694 405.953 158.688 405.064 159.492C404.218 160.254 403.202 160.635 402.018 160.635C399.479 160.423 398.082 159.048 397.828 156.509ZM450.196 141.211C450.196 140.153 449.646 139.603 448.546 139.561H426.329C425.525 139.603 424.827 139.963 424.234 140.64C423.642 141.274 423.198 142.036 422.901 142.925C422.647 143.771 422.521 144.639 422.521 145.527C422.521 146.374 422.647 147.241 422.901 148.13C423.198 148.976 423.642 149.738 424.234 150.415C424.827 151.05 425.525 151.367 426.329 151.367H442.579C443.764 151.367 444.758 151.79 445.562 152.637C446.409 153.441 446.832 154.435 446.832 155.62C446.832 156.805 446.409 157.799 445.562 158.604C444.758 159.45 443.764 159.873 442.579 159.873H426.583C423.621 159.831 421.166 159.006 419.22 157.397C417.315 155.747 415.94 153.906 415.094 151.875C414.29 149.801 413.888 147.664 413.888 145.464C413.888 143.348 414.311 141.274 415.157 139.243C416.004 137.17 417.379 135.329 419.283 133.721C421.188 132.07 424.002 131.182 427.726 131.055H454.386C455.571 131.055 456.586 131.457 457.433 132.261C458.279 133.022 458.723 133.996 458.766 135.181V155.239C458.766 158.625 458.3 161.82 457.369 164.824C456.523 167.49 455.126 169.733 453.18 171.553C451.275 173.415 448.842 174.43 445.88 174.6H423.917C422.774 174.557 421.801 174.134 420.997 173.33C420.235 172.568 419.833 171.616 419.791 170.474C419.791 169.289 420.172 168.273 420.934 167.427C421.738 166.58 422.732 166.136 423.917 166.094H443.722C445.33 166.009 446.663 165.396 447.721 164.253C448.779 163.11 449.456 161.777 449.752 160.254C450.048 158.73 450.196 156.763 450.196 154.351V141.211ZM293.028 221.509C290.87 218.589 288.712 214.759 286.554 210.02L282.428 201.133C282.216 200.667 282.089 200.16 282.047 199.609C281.962 198.424 282.322 197.409 283.126 196.562C283.93 195.716 284.988 195.293 286.3 195.293C287.739 195.293 288.797 195.589 289.474 196.182C290.193 196.732 290.764 197.451 291.188 198.34L294.171 205.703C294.933 207.438 295.673 209.089 296.393 210.654C297.154 212.178 298.001 213.574 298.932 214.844C299.905 216.113 300.984 216.79 302.169 216.875C303.312 216.79 304.391 216.113 305.406 214.844C306.295 213.574 307.099 212.178 307.818 210.654C308.58 209.089 309.342 207.438 310.104 205.703L313.087 198.34C313.51 197.451 314.06 196.732 314.737 196.182C315.457 195.589 316.536 195.293 317.975 195.293C319.286 195.293 320.344 195.716 321.148 196.562C321.952 197.409 322.312 198.424 322.228 199.609C322.185 200.16 322.058 200.667 321.847 201.133L317.721 210.02C315.562 214.759 313.404 218.589 311.246 221.509C309.173 224.386 306.147 225.846 302.169 225.889C298.149 225.846 295.102 224.386 293.028 221.509ZM364.757 221.509V206.211C364.757 205.153 364.207 204.603 363.106 204.561H340.89C340.086 204.603 339.387 204.963 338.795 205.64C338.202 206.274 337.758 207.036 337.462 207.925C337.208 208.771 337.081 209.639 337.081 210.527C337.081 211.374 337.208 212.241 337.462 213.13C337.758 213.976 338.202 214.738 338.795 215.415C339.387 216.05 340.086 216.367 340.89 216.367H357.14C358.325 216.367 359.319 216.79 360.123 217.637C360.969 218.441 361.393 219.435 361.393 220.62C361.393 221.805 360.969 222.799 360.123 223.604C359.319 224.45 358.325 224.873 357.14 224.873H341.144C338.181 224.831 335.727 224.006 333.78 222.397C331.876 220.747 330.501 218.906 329.654 216.875C328.85 214.801 328.448 212.664 328.448 210.464C328.448 208.348 328.871 206.274 329.718 204.243C330.564 202.17 331.939 200.329 333.844 198.721C335.748 197.07 338.562 196.182 342.286 196.055H368.946C370.131 196.055 371.147 196.457 371.993 197.261C372.84 198.022 373.284 198.996 373.326 200.181V221.509C373.326 222.694 372.882 223.688 371.993 224.492C371.147 225.254 370.131 225.635 368.946 225.635C366.407 225.423 365.011 224.048 364.757 221.509ZM385.895 195.42C387.037 195.462 388.01 195.885 388.814 196.689C389.618 197.451 390.042 198.403 390.084 199.546V221.509C389.83 224.048 388.434 225.423 385.895 225.635C384.71 225.635 383.673 225.254 382.784 224.492C381.938 223.688 381.515 222.694 381.515 221.509V199.546C381.557 198.361 382.001 197.388 382.848 196.626C383.694 195.822 384.71 195.42 385.895 195.42ZM380.562 187.168C380.562 185.983 381.07 184.967 382.086 184.121C383.102 183.275 384.329 182.852 385.768 182.852C387.206 182.852 388.434 183.275 389.449 184.121C390.465 184.967 390.973 185.983 390.973 187.168C390.973 188.395 390.465 189.432 389.449 190.278C388.434 191.125 387.206 191.548 385.768 191.548C384.329 191.548 383.102 191.125 382.086 190.278C381.07 189.432 380.562 188.395 380.562 187.168ZM406.397 190.532V214.717C406.397 215.775 406.948 216.325 408.048 216.367H430.265C431.069 216.325 431.767 215.986 432.359 215.352C432.952 214.674 433.375 213.913 433.629 213.066C433.925 212.178 434.073 211.289 434.073 210.4C434.073 209.554 433.925 208.708 433.629 207.861C433.375 206.973 432.952 206.211 432.359 205.576C431.767 204.899 431.069 204.561 430.265 204.561H414.015C412.83 204.561 411.814 204.159 410.968 203.354C410.164 202.508 409.762 201.493 409.762 200.308C409.762 199.123 410.185 198.128 411.031 197.324C411.835 196.478 412.83 196.055 414.015 196.055H430.011C432.973 196.097 435.406 196.943 437.311 198.594C439.257 200.202 440.632 202.043 441.437 204.116C442.283 206.147 442.706 208.263 442.706 210.464C442.706 212.58 442.283 214.674 441.437 216.748C440.59 218.779 439.215 220.62 437.311 222.271C435.406 223.879 432.592 224.746 428.868 224.873H402.208C401.023 224.873 400.007 224.492 399.161 223.73C398.315 222.926 397.87 221.932 397.828 220.747V190.532C397.828 189.347 398.251 188.374 399.098 187.612C399.986 186.808 401.023 186.406 402.208 186.406C404.747 186.618 406.144 187.993 406.397 190.532ZM453.941 186.406C455.084 186.449 456.057 186.872 456.861 187.676C457.665 188.438 458.089 189.39 458.131 190.532V196.055H477.809C480.771 196.097 483.204 196.943 485.108 198.594C487.055 200.202 488.43 202.021 489.234 204.053C490.081 206.126 490.504 208.263 490.504 210.464H490.567V221.509C490.567 222.694 490.123 223.688 489.234 224.492C488.388 225.254 487.372 225.635 486.188 225.635C483.648 225.423 482.252 224.048 481.998 221.509V210.4C481.998 209.596 481.829 208.75 481.49 207.861C481.194 206.973 480.75 206.211 480.157 205.576C479.565 204.899 478.867 204.561 478.062 204.561H458.131V221.636C457.877 224.175 456.48 225.55 453.941 225.762C452.757 225.762 451.72 225.381 450.831 224.619C449.985 223.815 449.562 222.821 449.562 221.636V190.532C449.604 189.347 450.048 188.374 450.895 187.612C451.741 186.808 452.757 186.406 453.941 186.406ZM534.049 221.509V206.211C534.049 205.153 533.499 204.603 532.398 204.561H510.182C509.378 204.603 508.679 204.963 508.087 205.64C507.494 206.274 507.05 207.036 506.754 207.925C506.5 208.771 506.373 209.639 506.373 210.527C506.373 211.374 506.5 212.241 506.754 213.13C507.05 213.976 507.494 214.738 508.087 215.415C508.679 216.05 509.378 216.367 510.182 216.367H526.432C527.617 216.367 528.611 216.79 529.415 217.637C530.261 218.441 530.685 219.435 530.685 220.62C530.685 221.805 530.261 222.799 529.415 223.604C528.611 224.45 527.617 224.873 526.432 224.873H510.436C507.473 224.831 505.019 224.006 503.072 222.397C501.168 220.747 499.793 218.906 498.946 216.875C498.142 214.801 497.74 212.664 497.74 210.464C497.74 208.348 498.163 206.274 499.01 204.243C499.856 202.17 501.231 200.329 503.136 198.721C505.04 197.07 507.854 196.182 511.578 196.055H538.238C539.423 196.055 540.439 196.457 541.285 197.261C542.132 198.022 542.576 198.996 542.618 200.181V221.509C542.618 222.694 542.174 223.688 541.285 224.492C540.439 225.254 539.423 225.635 538.238 225.635C535.699 225.423 534.303 224.048 534.049 221.509ZM560.836 221.509C558.678 218.589 556.52 214.759 554.361 210.02L550.235 201.133C550.024 200.667 549.897 200.16 549.854 199.609C549.77 198.424 550.13 197.409 550.934 196.562C551.738 195.716 552.796 195.293 554.107 195.293C555.546 195.293 556.604 195.589 557.281 196.182C558.001 196.732 558.572 197.451 558.995 198.34L561.979 205.703C562.74 207.438 563.481 209.089 564.2 210.654C564.962 212.178 565.808 213.574 566.739 214.844C567.713 216.113 568.792 216.79 569.977 216.875C571.119 216.79 572.198 216.113 573.214 214.844C574.103 213.574 574.907 212.178 575.626 210.654C576.388 209.089 577.149 207.438 577.911 205.703L580.895 198.34C581.318 197.451 581.868 196.732 582.545 196.182C583.264 195.589 584.343 195.293 585.782 195.293C587.094 195.293 588.152 195.716 588.956 196.562C589.76 197.409 590.12 198.424 590.035 199.609C589.993 200.16 589.866 200.667 589.654 201.133L585.528 210.02C583.37 214.759 581.212 218.589 579.054 221.509C576.98 224.386 573.954 225.846 569.977 225.889C565.956 225.846 562.91 224.386 560.836 221.509Z" fill="white"/>
<path d="M59.3535 89.7764C59.3535 89.1748 59.5576 88.6699 59.9658 88.2617C60.3955 87.832 60.9111 87.6172 61.5127 87.6172H67.7002V77.2402H61.5127C60.9111 77.2402 60.4062 77.0254 59.998 76.5957C59.5684 76.1875 59.3535 75.6826 59.3535 75.0811C59.3535 74.4795 59.5576 73.9746 59.9658 73.5664C60.3955 73.1367 60.9111 72.9219 61.5127 72.9219H78.2061C78.8076 72.9219 79.3232 73.126 79.7529 73.5342C80.1611 73.9639 80.3652 74.4795 80.3652 75.0811C80.3652 75.6826 80.1504 76.1982 79.7207 76.6279C79.3125 77.0361 78.8076 77.2402 78.2061 77.2402H72.0508V87.6172H78.2061C78.8076 87.6172 79.3232 87.8213 79.7529 88.2295C80.1611 88.6592 80.3652 89.1748 80.3652 89.7764C80.3652 90.3779 80.1504 90.8936 79.7207 91.3232C79.3125 91.7314 78.8076 91.9355 78.2061 91.9355H61.5127C60.9111 91.9355 60.4062 91.7207 59.998 91.291C59.5684 90.8828 59.3535 90.3779 59.3535 89.7764ZM86.3594 77.4336C86.166 77.541 85.9727 77.5947 85.7793 77.5947C85.6719 77.5947 85.5645 77.5732 85.457 77.5303C85.1562 77.4443 84.9307 77.251 84.7803 76.9502C84.6299 76.6494 84.5977 76.3486 84.6836 76.0479C84.7695 75.7256 84.9521 75.4678 85.2314 75.2744C86.585 74.2861 87.3154 73.0293 87.4229 71.5039C87.4229 71.418 87.3906 71.3535 87.3262 71.3105C87.2617 71.2461 87.1865 71.2139 87.1006 71.2139C86.3701 71.2139 85.7471 70.9883 85.2314 70.5371C84.7158 70.0645 84.458 69.4414 84.458 68.668C84.458 67.8301 84.7051 67.1641 85.1992 66.6699C85.6934 66.1543 86.3271 65.8965 87.1006 65.8965C88.1318 65.8965 88.916 66.2939 89.4531 67.0889C90.0117 67.8623 90.291 68.958 90.291 70.376C90.291 73.4053 88.9805 75.7578 86.3594 77.4336ZM101.216 76.8213C101.968 76.8213 102.698 76.9502 103.407 77.208C104.138 77.4658 104.836 77.8418 105.502 78.3359C105.609 78.4434 105.728 78.5508 105.856 78.6582C105.964 78.5508 106.082 78.4434 106.211 78.3359C106.877 77.8418 107.564 77.4658 108.273 77.208C109.004 76.9502 109.734 76.8213 110.465 76.8213C111.217 76.8213 111.947 76.9502 112.656 77.208C113.387 77.4658 114.074 77.8525 114.719 78.3682C115.385 78.8623 115.965 79.5283 116.459 80.3662C116.975 81.2041 117.232 82.2031 117.232 83.3633V90.2275C117.104 91.5166 116.395 92.2148 115.105 92.3223C114.504 92.3223 113.978 92.1289 113.526 91.7422C113.097 91.334 112.882 90.8291 112.882 90.2275V83.6211C112.882 83.1055 112.785 82.6758 112.592 82.332C112.398 81.9668 112.184 81.6875 111.947 81.4941C111.711 81.2793 111.464 81.1289 111.206 81.043C110.948 80.9355 110.69 80.8818 110.433 80.8818C110.175 80.8818 109.917 80.9355 109.659 81.043C109.423 81.1289 109.187 81.2793 108.95 81.4941C108.714 81.6875 108.499 81.9668 108.306 82.332C108.112 82.6758 108.005 83.1055 107.983 83.6211V90.2275C107.854 91.5166 107.146 92.2148 105.856 92.3223C105.255 92.3223 104.729 92.1289 104.277 91.7422C103.848 91.334 103.633 90.8291 103.633 90.2275V83.6211C103.633 83.1055 103.536 82.6758 103.343 82.332C103.149 81.9668 102.935 81.6875 102.698 81.4941C102.462 81.2793 102.215 81.1289 101.957 81.043C101.699 80.9355 101.441 80.8818 101.184 80.8818C100.926 80.8818 100.668 80.9355 100.41 81.043C100.174 81.1289 99.9375 81.2793 99.7012 81.4941C99.4648 81.6875 99.25 81.9668 99.0566 82.332C98.8633 82.6758 98.7559 83.1055 98.7344 83.6211V90.2275C98.627 91.5166 97.9287 92.2148 96.6396 92.3223C96.0381 92.3223 95.5117 92.1289 95.0605 91.7422C94.6309 91.334 94.416 90.8291 94.416 90.2275V83.3633C94.459 82.2031 94.7275 81.2041 95.2217 80.3662C95.7158 79.5283 96.2959 78.8623 96.9619 78.3682C97.6279 77.8525 98.3154 77.4658 99.0244 77.208C99.7549 76.9502 100.485 76.8213 101.216 76.8213Z" fill="#888888"/>
<line x1="461" y1="303" x2="627" y2="303" stroke="#00EBEB" stroke-width="4"/>
<path d="M61 169.5L71.5 160L61 175.5L80 160L61 183L89 160L61 192L100 160L61 202L112 160L61 211L123.5 160L61 222L139.5 160L61 235L139.5 175.5L76.5 235L139.5 192L95.5 235L139.5 211L115 235L139.5 222L132.5 235" stroke="#858585" stroke-width="2"/>
<g filter="url(#filter0_di_553_20)">
<path fill-rule="evenodd" clip-rule="evenodd" d="M124.071 204.118L157.089 136.087L160.818 134.512L155.178 146.816L190.084 212.608L188.784 216.349L182.009 203.391L139.715 177.008L125.966 204.757L205.187 226.573L191.48 193.232L207.759 227.281L214 229L159.474 119.612L136.197 154.357L158.013 116.68L153.686 108L121.811 171.317L93 228.942L109.848 216.137L115.975 195.09L112.146 214.771L124.071 204.118Z" fill="#00EBEB"/>
</g>
<path d="M544 91.9077L555.318 102L550.288 83.0769L564.75 102L555.318 73.6154L575.439 102L560.977 64.7846L585.5 102L566.636 55.9538L594.932 102L571.667 46.4923L604.364 102L577.326 39.5538L615.053 102L580.47 30.7231L627 102L588.015 20" stroke="#858585" stroke-width="2"/>
</g>
<defs>
<filter id="filter0_di_553_20" x="93" y="108" width="130" height="130" filterUnits="userSpaceOnUse" color-interpolation-filters="sRGB">
<feFlood flood-opacity="0" result="BackgroundImageFix"/>
<feColorMatrix in="SourceAlpha" type="matrix" values="0 0 0 0 0 0 0 0 0 0 0 0 0 0 0 0 0 0 127 0" result="hardAlpha"/>
<feOffset dx="6" dy="6"/>
<feGaussianBlur stdDeviation="1.5"/>
<feComposite in2="hardAlpha" operator="out"/>
<feColorMatrix type="matrix" values="0 0 0 0 0 0 0 0 0 0 0 0 0 0 0 0 0 0 0.5 0"/>
<feBlend mode="normal" in2="BackgroundImageFix" result="effect1_dropShadow_553_20"/>
<feBlend mode="normal" in="SourceGraphic" in2="effect1_dropShadow_553_20" result="shape"/>
<feColorMatrix in="SourceAlpha" type="matrix" values="0 0 0 0 0 0 0 0 0 0 0 0 0 0 0 0 0 0 127 0" result="hardAlpha"/>
<feOffset dy="7"/>
<feComposite in2="hardAlpha" operator="arithmetic" k2="-1" k3="1"/>
<feColorMatrix type="matrix" values="0 0 0 0 0 0 0 0 0 0 0 0 0 0 0 0 0 0 0.6 0"/>
<feBlend mode="normal" in2="shape" result="effect2_innerShadow_553_20"/>
</filter>
<clipPath id="clip0_553_20">
<rect width="626" height="1160" fill="white"/>
</clipPath>
</defs>
</svg>
